<svg xmlns="http://www.w3.org/2000/svg" width="32.121" height="35.873" viewBox="0 0 32.121 35.873"><defs><style>.a{fill:none;stroke:#fff;stroke-miterlimit:10;stroke-width:2px;}</style></defs><g transform="translate(1.005 1.017)"><path class="a" d="M1056.449,336.972s24.5,4.208,24.617,4.231c2.956.6-1.976,4.743-3,5.883-2.037,2.267-7.061,4.837-10.321,4.383a20.249,20.249,0,0,1-3.818-1.431l-7.95-2.979a1.635,1.635,0,0,1-.586-2.683l.063-.064a1.635,1.635,0,0,0,.379-1.7l-1.247-3.483A1.635,1.635,0,0,1,1056.449,336.972Z" transform="translate(-1052.049 -317.671)"/><g transform="translate(4.486 11.352)"><line class="a" x1="1.403" y1="8.251" transform="translate(0 0)"/><path class="a" d="M1108.464,316.408l6.411.765,2.411,4.241a1.324,1.324,0,0,1-.729,1.918l-1.549.517v2.395" transform="translate(-1094.185 -314.702)"/></g><path class="a" d="M1047.668,284.2l27.288,3.258a1.411,1.411,0,0,0,1.567-1.588l-.084-.629a1.411,1.411,0,0,0-1.4-1.226h-.728a1.411,1.411,0,0,1-1.17-.622l-4.59-6.8a1.414,1.414,0,0,0-.862-.588l-12.258-2.738a1.412,1.412,0,0,0-1.494.613l-4.422,6.859a1.412,1.412,0,0,1-1.186.647h-.494a1.411,1.411,0,0,0-1.379,1.112h0A1.412,1.412,0,0,0,1047.668,284.2Z" transform="translate(-1046.423 -273.235)"/><path class="a" d="M1146.731,338.268" transform="translate(-1116.392 -318.598)"/></g></svg>