<svg xmlns="http://www.w3.org/2000/svg" width="22" height="23" viewBox="0 0 22 23">
  <g id="Group_22986" data-name="Group 22986" transform="translate(-242 -520)">
    <g id="Rectangle_4826" data-name="Rectangle 4826" transform="translate(242 522)" fill="#00bb89" stroke="#00bb89" stroke-width="1">
      <rect width="22" height="21" rx="3" stroke="none"/>
      <rect x="0.5" y="0.5" width="21" height="20" rx="2.5" fill="none"/>
    </g>
    <path id="Rectangle_4828" data-name="Rectangle 4828" d="M1.5,0h0A1.5,1.5,0,0,1,3,1.5V5A0,0,0,0,1,3,5H0A0,0,0,0,1,0,5V1.5A1.5,1.5,0,0,1,1.5,0Z" transform="translate(247 520)" fill="#00bb89"/>
    <path id="Rectangle_4829" data-name="Rectangle 4829" d="M1.5,0h0A1.5,1.5,0,0,1,3,1.5V5A0,0,0,0,1,3,5H0A0,0,0,0,1,0,5V1.5A1.5,1.5,0,0,1,1.5,0Z" transform="translate(256 520)" fill="#00bb89"/>
    <path id="Path_13485" data-name="Path 13485" d="M8624.418,13311.767l1.48-1.443,2.055,2.1,7.155-6.032h.31l-7.465,8.834Z" transform="translate(-8374.419 -12778.121)" fill="#fff"/>
    <line id="Line_541" data-name="Line 541" x2="22" transform="translate(242 525.956)" fill="none" stroke="#fff" stroke-width="1"/>
    <g id="Rectangle_4832" data-name="Rectangle 4832" transform="translate(248.5 529.735)" fill="none" stroke="#fff" stroke-width="1">
      <rect width="9" height="9" rx="2" stroke="none"/>
      <rect x="0.5" y="0.5" width="8" height="8" rx="1.5" fill="none"/>
    </g>
  </g>
</svg>
