<svg xmlns="http://www.w3.org/2000/svg" width="22" height="23.088" viewBox="0 0 22 23.088">
  <g id="Group_22985" data-name="Group 22985" transform="translate(-242 -519.912)">
    <g id="Rectangle_4826" data-name="Rectangle 4826" transform="translate(242 522)" fill="#fff" stroke="#00bb89" stroke-width="1">
      <rect width="22" height="21" rx="3" stroke="none"/>
      <rect x="0.5" y="0.5" width="21" height="20" rx="2.5" fill="none"/>
    </g>
    <g id="Group_22983" data-name="Group 22983" transform="translate(3.5 15.5)">
      <text id="avail" transform="translate(241.5 523.5)" fill="#00bb89" font-size="6" font-family="Poppins-SemiBold, Poppins" font-weight="600" letter-spacing="-0.02em"><tspan x="0" y="0">avail</tspan></text>
    </g>
    <path id="Path_13485" data-name="Path 13485" d="M8625.957,13314.8l1.592-2.163,2.012,1.588,5.833-5.838h.449l-6.282,9.508Z" transform="translate(-8378.344 -12783.392)" fill="#00bb89"/>
    <path id="Rectangle_4830" data-name="Rectangle 4830" d="M1.5,0h0A1.5,1.5,0,0,1,3,1.5v.588a0,0,0,0,1,0,0H0a0,0,0,0,1,0,0V1.5A1.5,1.5,0,0,1,1.5,0Z" transform="translate(247.613 519.912)" fill="#00bb89"/>
    <path id="Rectangle_4831" data-name="Rectangle 4831" d="M1.5,0h0A1.5,1.5,0,0,1,3,1.5v.588a0,0,0,0,1,0,0H0a0,0,0,0,1,0,0V1.5A1.5,1.5,0,0,1,1.5,0Z" transform="translate(256.613 519.912)" fill="#00bb89"/>
    <line id="Line_539" data-name="Line 539" x2="9" transform="translate(242.499 527.5)" fill="none" stroke="#00bb89" stroke-width="1"/>
    <line id="Line_540" data-name="Line 540" x2="6.501" transform="translate(257.499 527.5)" fill="none" stroke="#00bb89" stroke-width="1"/>
  </g>
</svg>
