<svg id="availchecksent" xmlns="http://www.w3.org/2000/svg" width="22" height="23.088" viewBox="0 0 22 23.088">
  <g id="Group_22991" data-name="Group 22991" transform="translate(-335.001 -503.912)">
    <g id="Rectangle_4826" data-name="Rectangle 4826" transform="translate(335.001 506)" fill="#fff" stroke="#21c6df" stroke-width="1">
      <rect width="22" height="21" rx="3" stroke="none"/>
      <rect x="0.5" y="0.5" width="21" height="20" rx="2.5" fill="none"/>
    </g>
    <g id="Group_22983" data-name="Group 22983" transform="translate(97.501 -9.5)">
      <text id="avail_check_sent" data-name="avail
check
sent" transform="translate(248.5 522.5)" fill="#21c6df" font-size="6" font-family="Poppins-SemiBold, Poppins" font-weight="600" letter-spacing="-0.06em"><tspan x="-6.813" y="0">avail</tspan><tspan x="-8.478" y="6">check</tspan><tspan x="-6.093" y="12">sent</tspan></text>
    </g>
    <path id="Rectangle_4830" data-name="Rectangle 4830" d="M1.5,0h0A1.5,1.5,0,0,1,3,1.5v.588a0,0,0,0,1,0,0H0a0,0,0,0,1,0,0V1.5A1.5,1.5,0,0,1,1.5,0Z" transform="translate(340.614 503.912)" fill="#21c6df"/>
    <path id="Rectangle_4831" data-name="Rectangle 4831" d="M1.5,0h0A1.5,1.5,0,0,1,3,1.5v.588a0,0,0,0,1,0,0H0a0,0,0,0,1,0,0V1.5A1.5,1.5,0,0,1,1.5,0Z" transform="translate(349.614 503.912)" fill="#21c6df"/>
  </g>
</svg>
