<svg xmlns="http://www.w3.org/2000/svg" width="29" height="32" viewBox="0 0 29 32"><defs><style>.a{fill:none;stroke:#fff;stroke-linecap:round;stroke-linejoin:round;stroke-width:2px;}.b{fill:#fff;}.c,.d{stroke:none;}.d{fill:#fff;}</style></defs><g transform="translate(1 1)"><path class="a" d="M7.5,6h21a3,3,0,0,1,3,3V30a3,3,0,0,1-3,3H7.5a3,3,0,0,1-3-3V9a3,3,0,0,1,3-3Z" transform="translate(-4.5 -3)"/><path class="a" d="M24,3V9" transform="translate(-4.5 -3)"/><path class="a" d="M12,3V9" transform="translate(-4.5 -3)"/><path class="a" d="M4.5,15h27" transform="translate(-4.5 -3)"/><g class="b" transform="translate(13.73 15.037)"><path class="c" d="M 5.884090423583984 7.499240398406982 L 2.615150451660156 7.499240398406982 C 1.724550485610962 7.499240398406982 1.000000476837158 6.774690628051758 1.000000476837158 5.884090423583984 L 1.000000476837158 2.615150451660156 C 1.000000476837158 1.724550485610962 1.724550485610962 1.000000476837158 2.615150451660156 1.000000476837158 L 5.884090423583984 1.000000476837158 C 6.774690628051758 1.000000476837158 7.499240398406982 1.724550485610962 7.499240398406982 2.615150451660156 L 7.499240398406982 5.884090423583984 C 7.499240398406982 6.774690628051758 6.774690628051758 7.499240398406982 5.884090423583984 7.499240398406982 Z"/><path class="d" d="M 2.615150451660156 2.000000476837158 C 2.275960445404053 2.000000476837158 2.000000476837158 2.275960445404053 2.000000476837158 2.615150451660156 L 2.000000476837158 5.884090423583984 C 2.000000476837158 6.223280429840088 2.275960445404053 6.499240398406982 2.615150451660156 6.499240398406982 L 5.884090423583984 6.499240398406982 C 6.223280429840088 6.499240398406982 6.499240398406982 6.223280429840088 6.499240398406982 5.884090423583984 L 6.499240398406982 2.615150451660156 C 6.499240398406982 2.275960445404053 6.223280429840088 2.000000476837158 5.884090423583984 2.000000476837158 L 2.615150451660156 2.000000476837158 M 2.615150451660156 0 L 5.884090423583984 0 C 7.328400611877441 0 8.499240875244141 1.170840263366699 8.499240875244141 2.615150451660156 L 8.499240875244141 5.884090423583984 C 8.499240875244141 7.328400611877441 7.328400611877441 8.499240875244141 5.884090423583984 8.499240875244141 L 2.615150451660156 8.499240875244141 C 1.170840263366699 8.499240875244141 0 7.328400611877441 0 5.884090423583984 L 0 2.615150451660156 C 0 1.170840263366699 1.170840263366699 0 2.615150451660156 0 Z"/></g></g></svg>