<svg xmlns="http://www.w3.org/2000/svg" width="25.431" height="29.46" viewBox="0 0 25.431 29.46">
  <g id="Component_220_1" data-name="Component 220 – 1" transform="translate(1.003 -6.012)">
    <path id="Path_1" data-name="Path 1" d="M9.8,1.807A.95.95,0,0,0,8.8,1l-.322.032a.95.95,0,0,0-.805,1" transform="translate(1.834 6.016)" fill="none" stroke="#fff" stroke-linecap="square" stroke-linejoin="round" stroke-miterlimit="10" stroke-width="2"/>
    <path id="Path_2" data-name="Path 2" d="M20.483,17.515l-.637-5.624c-.539-5.023-4.657-8.627-9.168-8.026S2.933,9.051,3.521,14.075L4.158,19.7l-.392.055a3.46,3.46,0,0,0-2.745,3.931,3.249,3.249,0,0,0,3.53,3.058l17.11-2.293a3.46,3.46,0,0,0,2.745-3.931,3.249,3.249,0,0,0-3.53-3.058Z" transform="translate(-1 5.37)" fill="none" stroke="#fff" stroke-linecap="square" stroke-linejoin="round" stroke-miterlimit="10" stroke-width="2"/>
    <path id="Path_3" data-name="Path 3" d="M9.9,22.014a1.868,1.868,0,1,1-3.735,0" transform="translate(1.812 10.591)" fill="none" stroke="#fff" stroke-linecap="square" stroke-linejoin="round" stroke-miterlimit="10" stroke-width="2"/>
  </g>
</svg>
