<svg id="book" xmlns="http://www.w3.org/2000/svg" width="22.002" height="23" viewBox="0 0 22.002 23">
  <g id="Group_22995" data-name="Group 22995" transform="translate(-241.999 -520)">
    <g id="Rectangle_4826" data-name="Rectangle 4826" transform="translate(242 522)" fill="#fff" stroke="#00bb89" stroke-width="1">
      <rect width="22" height="21" rx="3" stroke="none"/>
      <rect x="0.5" y="0.5" width="21" height="20" rx="2.5" fill="none"/>
    </g>
    <path id="Union_2" data-name="Union 2" d="M-8375-12762v-8a4,4,0,0,1,4-4h1v-.5a1.5,1.5,0,0,1,1.5-1.5,1.5,1.5,0,0,1,1.5,1.5v.5h6v-.5a1.5,1.5,0,0,1,1.5-1.5,1.5,1.5,0,0,1,1.5,1.5v.5h2a3,3,0,0,1,3,3v9Z" transform="translate(8617 13296)" fill="#00bb89"/>
    <g id="Group_22983" data-name="Group 22983" transform="translate(4.5 15.5)">
      <text id="book-2" data-name="book" transform="translate(241.5 524.5)" fill="#00bb89" font-size="6" font-family="Poppins-SemiBold, Poppins" font-weight="600" letter-spacing="-0.05em"><tspan x="0" y="0">book</tspan></text>
    </g>
  </g>
  <path id="Icon_metro-user-check" data-name="Icon metro-user-check" d="M13,8.179,9.872,11.14l-1.043-.987-.7.658,1.738,1.645,3.405-4.277ZM7.438,9.824H10.65l.149-.147.116-.171V8.64a6.957,6.957,0,0,0-2.781-.763V7.334A2.9,2.9,0,0,0,9.524,4.889c0-1.635,0-2.961-2.086-2.961S5.352,3.254,5.352,4.889A2.9,2.9,0,0,0,6.743,7.334v.543c-2.359.182-4.172,1.279-4.172,2.605H7.438V9.824Z" transform="translate(3.575 0.695)" fill="#fff"/>
</svg>
