<svg xmlns="http://www.w3.org/2000/svg" width="376.5" height="219.5" viewBox="0 0 376.5 219.5">
  <g id="Group_22776" data-name="Group 22776" transform="translate(-1272 -692)">
    <text id="New_project_title_" data-name="New project title " transform="translate(1272 751)" fill="#d5dfef" font-size="33" font-family="Poppins-Medium, Poppins" font-weight="500" opacity="0.44"><tspan x="0" y="0">New project title </tspan></text>
    <text id="booking" transform="translate(1272 709)" fill="#d5dfef" font-size="16" font-family="Poppins-Regular, Poppins" opacity="0.49"><tspan x="0" y="0">BOOKING</tspan></text>
    <g id="Group_22771" data-name="Group 22771" transform="translate(546.5)">
      <g id="Group_22766" data-name="Group 22766" transform="translate(-72 157.5)" opacity="0.71">
        <g id="Path_12993" data-name="Path 12993" transform="translate(917 641)" fill="none">
          <path d="M39.5,0A39.5,39.5,0,1,1,0,39.5,39.5,39.5,0,0,1,39.5,0Z" stroke="none"/>
          <path d="M 39.5 2 C 34.4366455078125 2 29.52582168579102 2.9912109375 24.9039192199707 4.946121215820313 C 20.43868255615234 6.834754943847656 16.42807006835938 9.538917541503906 12.98349761962891 12.98349761962891 C 9.538917541503906 16.42807006835938 6.834754943847656 20.43868255615234 4.946121215820313 24.9039192199707 C 2.9912109375 29.52582168579102 2 34.4366455078125 2 39.5 C 2 44.5633544921875 2.9912109375 49.47417449951172 4.946121215820313 54.09608459472656 C 6.834754943847656 58.56131744384766 9.538917541503906 62.57192993164063 12.98349761962891 66.01651000976563 C 16.42807006835938 69.46108245849609 20.43868255615234 72.16524505615234 24.9039192199707 74.05387878417969 C 29.52582168579102 76.0087890625 34.4366455078125 77 39.5 77 C 44.5633544921875 77 49.47417449951172 76.0087890625 54.09608459472656 74.05387878417969 C 58.56131744384766 72.16524505615234 62.57192993164063 69.46108245849609 66.01651000976563 66.01651000976563 C 69.46108245849609 62.57192993164063 72.16524505615234 58.56131744384766 74.05387878417969 54.09608459472656 C 76.0087890625 49.47417449951172 77 44.5633544921875 77 39.5 C 77 34.4366455078125 76.0087890625 29.52582168579102 74.05387878417969 24.9039192199707 C 72.16524505615234 20.43868255615234 69.46108245849609 16.42807006835938 66.01651000976563 12.98349761962891 C 62.57192993164063 9.538917541503906 58.56131744384766 6.834754943847656 54.09608459472656 4.946121215820313 C 49.47417449951172 2.9912109375 44.5633544921875 2 39.5 2 M 39.5 0 C 61.31524658203125 0 79 17.68475341796875 79 39.5 C 79 61.31524658203125 61.31524658203125 79 39.5 79 C 17.68475341796875 79 0 61.31524658203125 0 39.5 C 0 17.68475341796875 17.68475341796875 0 39.5 0 Z" stroke="none" fill="#d5dfef"/>
        </g>
        <path id="Icon_feather-check" data-name="Icon feather-check" d="M30,9,13.5,25.5,6,18" transform="translate(938.5 663.25)" fill="none" stroke="#d5dfef" stroke-linejoin="round" stroke-width="5"/>
      </g>
      <g id="Group_22769" data-name="Group 22769" transform="translate(722.546 770)">
        <g id="Path_13462" data-name="Path 13462" transform="translate(282.454 29)" fill="none">
          <path d="M39.5,0A39.5,39.5,0,1,1,0,39.5,39.5,39.5,0,0,1,39.5,0Z" stroke="none"/>
          <path d="M 39.5 2 C 34.4366455078125 2 29.52582168579102 2.9912109375 24.9039192199707 4.946121215820313 C 20.43868255615234 6.834754943847656 16.42807006835938 9.538917541503906 12.98349761962891 12.98349761962891 C 9.538917541503906 16.42807006835938 6.834754943847656 20.43868255615234 4.946121215820313 24.9039192199707 C 2.9912109375 29.52582168579102 2 34.4366455078125 2 39.5 C 2 44.5633544921875 2.9912109375 49.47417449951172 4.946121215820313 54.09608459472656 C 6.834754943847656 58.56131744384766 9.538917541503906 62.57192993164063 12.98349761962891 66.01651000976563 C 16.42807006835938 69.46108245849609 20.43868255615234 72.16524505615234 24.9039192199707 74.05387878417969 C 29.52582168579102 76.0087890625 34.4366455078125 77 39.5 77 C 44.5633544921875 77 49.47417449951172 76.0087890625 54.09608459472656 74.05387878417969 C 58.56131744384766 72.16524505615234 62.57192993164063 69.46108245849609 66.01651000976563 66.01651000976563 C 69.46108245849609 62.57192993164063 72.16524505615234 58.56131744384766 74.05387878417969 54.09608459472656 C 76.0087890625 49.47417449951172 77 44.5633544921875 77 39.5 C 77 34.4366455078125 76.0087890625 29.52582168579102 74.05387878417969 24.9039192199707 C 72.16524505615234 20.43868255615234 69.46108245849609 16.42807006835938 66.01651000976563 12.98349761962891 C 62.57192993164063 9.538917541503906 58.56131744384766 6.834754943847656 54.09608459472656 4.946121215820313 C 49.47417449951172 2.9912109375 44.5633544921875 2 39.5 2 M 39.5 0 C 61.31524658203125 0 79 17.68475341796875 79 39.5 C 79 61.31524658203125 61.31524658203125 79 39.5 79 C 17.68475341796875 79 0 61.31524658203125 0 39.5 C 0 17.68475341796875 17.68475341796875 0 39.5 0 Z" stroke="none" fill="#d5dfef"/>
        </g>
        <text id="YES_CONFIRMED" data-name="YES, CONFIRMED" transform="translate(95.454 135.5)" fill="#d5dfef" font-size="16" font-family="Poppins-Regular, Poppins"><tspan x="0" y="0">YES, CONFIRMED</tspan></text>
        <text id="NOT_AVAILABLE" data-name="NOT AVAILABLE" transform="translate(263.454 135.5)" fill="#d5dfef" font-size="16" font-family="Poppins-Regular, Poppins"><tspan x="0" y="0">NOT AVAILABLE</tspan></text>
        <line id="Line_10" data-name="Line 10" x2="18.076" transform="translate(312.916 68.5)" fill="none" stroke="#d5dfef" stroke-width="5"/>
      </g>
    </g>
  </g>
</svg>
