<svg xmlns="http://www.w3.org/2000/svg" width="277" height="219.5" viewBox="0 0 277 219.5">
  <g id="Group_22774" data-name="Group 22774" transform="translate(-177 -708)">
    <text id="New_project_title_" data-name="New project title " transform="translate(177 767)" fill="#d5dfef" font-size="33" font-family="Poppins-Medium, Poppins" font-weight="500" opacity="0.51"><tspan x="0" y="0">New project title </tspan></text>
    <text id="final_notes_sent" data-name="final notes sent" transform="translate(177 725)" fill="#d5dfef" font-size="16" font-family="Poppins-Regular, Poppins" opacity="0.59"><tspan x="0" y="0">FINAL NOTES SENT</tspan></text>
    <g id="Group_17658" data-name="Group 17658" transform="translate(-97.955 786)">
      <g id="Path_13462" data-name="Path 13462" transform="translate(282.454 29)" fill="none">
        <path d="M39.5,0A39.5,39.5,0,1,1,0,39.5,39.5,39.5,0,0,1,39.5,0Z" stroke="none"/>
        <path d="M 39.5 2 C 34.4366455078125 2 29.52582168579102 2.9912109375 24.9039192199707 4.946121215820313 C 20.43868255615234 6.834754943847656 16.42807006835938 9.538917541503906 12.98349761962891 12.98349761962891 C 9.538917541503906 16.42807006835938 6.834754943847656 20.43868255615234 4.946121215820313 24.9039192199707 C 2.9912109375 29.52582168579102 2 34.4366455078125 2 39.5 C 2 44.5633544921875 2.9912109375 49.47417449951172 4.946121215820313 54.09608459472656 C 6.834754943847656 58.56131744384766 9.538917541503906 62.57192993164063 12.98349761962891 66.01651000976563 C 16.42807006835938 69.46108245849609 20.43868255615234 72.16524505615234 24.9039192199707 74.05387878417969 C 29.52582168579102 76.0087890625 34.4366455078125 77 39.5 77 C 44.5633544921875 77 49.47417449951172 76.0087890625 54.09608459472656 74.05387878417969 C 58.56131744384766 72.16524505615234 62.57192993164063 69.46108245849609 66.01651000976563 66.01651000976563 C 69.46108245849609 62.57192993164063 72.16524505615234 58.56131744384766 74.05387878417969 54.09608459472656 C 76.0087890625 49.47417449951172 77 44.5633544921875 77 39.5 C 77 34.4366455078125 76.0087890625 29.52582168579102 74.05387878417969 24.9039192199707 C 72.16524505615234 20.43868255615234 69.46108245849609 16.42807006835938 66.01651000976563 12.98349761962891 C 62.57192993164063 9.538917541503906 58.56131744384766 6.834754943847656 54.09608459472656 4.946121215820313 C 49.47417449951172 2.9912109375 44.5633544921875 2 39.5 2 M 39.5 0 C 61.31524658203125 0 79 17.68475341796875 79 39.5 C 79 61.31524658203125 61.31524658203125 79 39.5 79 C 17.68475341796875 79 0 61.31524658203125 0 39.5 C 0 17.68475341796875 17.68475341796875 0 39.5 0 Z" stroke="none" fill="#d5dfef"/>
      </g>
      <text id="emergency" transform="translate(274.954 135.5)" fill="#d5dfef" font-size="16" font-family="Poppins-Regular, Poppins"><tspan x="0" y="0">EMERGENCY</tspan></text>
      <line id="Line_10" data-name="Line 10" x2="18.076" transform="translate(312.916 68.5)" fill="none" stroke="#d5dfef" stroke-width="5"/>
    </g>
  </g>
</svg>
