<svg id="emergency" xmlns="http://www.w3.org/2000/svg" width="22.002" height="23" viewBox="0 0 22.002 23">
  <g id="Group_22997" data-name="Group 22997" transform="translate(-241.999 -520)">
    <g id="Rectangle_4826" data-name="Rectangle 4826" transform="translate(242 522)" fill="#fff" stroke="#901721" stroke-width="1">
      <rect width="22" height="21" rx="3" stroke="none"/>
      <rect x="0.5" y="0.5" width="21" height="20" rx="2.5" fill="none"/>
    </g>
    <path id="Union_2" data-name="Union 2" d="M-8375-12762v-8a4,4,0,0,1,4-4h1v-.5a1.5,1.5,0,0,1,1.5-1.5,1.5,1.5,0,0,1,1.5,1.5v.5h6v-.5a1.5,1.5,0,0,1,1.5-1.5,1.5,1.5,0,0,1,1.5,1.5v.5h2a3,3,0,0,1,3,3v9Z" transform="translate(8617 13296)" fill="#901721"/>
    <g id="Group_22983" data-name="Group 22983" transform="translate(5 15.499)">
      <text id="emerg" transform="translate(238.5 524.5)" fill="#901721" font-size="6" font-family="Poppins-SemiBold, Poppins" font-weight="600" letter-spacing="-0.05em"><tspan x="0" y="0">emerg</tspan></text>
    </g>
    <path id="Icon_ionic-ios-warning" data-name="Icon ionic-ios-warning" d="M6.69,4.791,3.445,10.714a.557.557,0,0,0,.5.823h6.493a.558.558,0,0,0,.5-.823L7.684,4.791A.569.569,0,0,0,6.69,4.791Zm.819,2.458L7.443,9.485H6.93L6.864,7.249ZM7.187,10.7a.337.337,0,1,1,.35-.337A.34.34,0,0,1,7.187,10.7Z" transform="translate(245.813 519.98)" fill="#fff"/>
  </g>
</svg>
