<svg id="final" xmlns="http://www.w3.org/2000/svg" width="22.002" height="23" viewBox="0 0 22.002 23">
  <g id="Group_22997" data-name="Group 22997" transform="translate(-241.999 -520)">
    <g id="Rectangle_4826" data-name="Rectangle 4826" transform="translate(242 522)" fill="#fff" stroke="#009aa5" stroke-width="1">
      <rect width="22" height="21" rx="3" stroke="none"/>
      <rect x="0.5" y="0.5" width="21" height="20" rx="2.5" fill="none"/>
    </g>
    <path id="Union_2" data-name="Union 2" d="M-8375-12762v-8a4,4,0,0,1,4-4h1v-.5a1.5,1.5,0,0,1,1.5-1.5,1.5,1.5,0,0,1,1.5,1.5v.5h6v-.5a1.5,1.5,0,0,1,1.5-1.5,1.5,1.5,0,0,1,1.5,1.5v.5h2a3,3,0,0,1,3,3v9Z" transform="translate(8617 13296)" fill="#009aa5"/>
    <g id="Group_22983" data-name="Group 22983" transform="translate(4.5 15.5)">
      <text id="final-2" data-name="final" transform="translate(242.5 524.5)" fill="#009aa5" font-size="6" font-family="Poppins-SemiBold, Poppins" font-weight="600" letter-spacing="-0.05em"><tspan x="0" y="0">final</tspan></text>
    </g>
  </g>
  <path id="Icon_metro-trophy" data-name="Icon metro-trophy" d="M9.314,4.894V3.856H4.127V4.894H2.571V5.931A1.557,1.557,0,0,0,4.594,7.416,2.6,2.6,0,0,0,6.2,8.473v1.608H5.683a1.037,1.037,0,0,0-1.037,1.037H8.8a1.037,1.037,0,0,0-1.037-1.037H7.239V8.473A2.6,2.6,0,0,0,8.847,7.416,1.557,1.557,0,0,0,10.87,5.931V4.894ZM4.127,6.871a.941.941,0,0,1-.94-.94V5.412h.94v.519a2.587,2.587,0,0,0,.17.925A.941.941,0,0,1,4.127,6.871Zm6.127-.94a.939.939,0,0,1-1.11.925,2.587,2.587,0,0,0,.17-.925V5.412h.94Z" transform="translate(4.28 0.749)" fill="#fff"/>
</svg>
