<svg xmlns="http://www.w3.org/2000/svg" width="41" height="55" viewBox="0 0 41 55"><defs><style>.a,.b{fill:#fff;}.a,.c{stroke:#141b26;stroke-width:3px;}.c,.e{fill:none;}.d,.f{stroke:none;}.f{fill:#141b26;}</style></defs><g class="a" transform="translate(8)"><circle class="d" cx="12.5" cy="12.5" r="12.5"/><circle class="e" cx="12.5" cy="12.5" r="11"/></g><g class="b" transform="translate(0 28.774)"><path class="d" d="M 39.4995002746582 24.72600173950195 L 1.50000011920929 24.72600173950195 L 1.50000011920929 19.7262020111084 C 1.50000011920929 15.50613212585449 2.853870153427124 11.5107421875 5.415240287780762 8.171941757202148 C 6.647910118103027 6.565141677856445 8.119970321655273 5.171321868896484 9.790519714355469 4.029181957244873 C 11.25415229797363 3.0285325050354 12.83858871459961 2.24317479133606 14.5108585357666 1.688602209091187 L 19.47579002380371 6.32285213470459 L 20.49924087524414 7.278141975402832 L 21.52275085449219 6.322911739349365 L 26.48831367492676 1.688630104064941 C 28.16066741943359 2.24320912361145 29.74528694152832 3.028603792190552 31.20897102355957 4.029262065887451 C 32.87955093383789 5.171371936798096 34.35163116455078 6.565191745758057 35.58430862426758 8.171992301940918 C 38.14564895629883 11.51068210601807 39.4995002746582 15.50606155395508 39.4995002746582 19.7262020111084 L 39.4995002746582 24.72600173950195 Z"/><path class="f" d="M 37.9995002746582 23.22600173950195 L 37.9995002746582 19.7262020111084 C 37.9995002746582 15.83911228179932 36.75279998779297 12.15945148468018 34.39418029785156 9.08501148223877 C 33.25825881958008 7.604321956634521 31.90176963806152 6.319941997528076 30.3624095916748 5.267541885375977 C 29.25812149047852 4.512587547302246 28.07918357849121 3.890718698501587 26.84250259399414 3.409850835800171 L 22.54619979858398 7.419521808624268 L 20.49917984008789 9.329972267150879 L 18.4522705078125 7.419402122497559 L 14.15662002563477 3.409857273101807 C 12.92012691497803 3.89070725440979 11.74125385284424 4.512569427490234 10.63710975646973 5.267451763153076 C 9.097769737243652 6.31987190246582 7.741290092468262 7.60427188873291 6.605370044708252 9.084961891174316 C 4.246720314025879 12.15950202941895 3.000000238418579 15.83918190002441 3.000000238418579 19.7262020111084 L 3.000000238418579 23.22600173950195 L 37.9995002746582 23.22600173950195 M 40.9995002746582 26.22600173950195 L 1.373290956507844e-07 26.22600173950195 L 1.373290956507844e-07 19.7262020111084 C 1.373290956507844e-07 15.17308235168457 1.461020112037659 10.86197185516357 4.225110054016113 7.258932113647461 C 5.554540157318115 5.526011943817139 7.1421799659729 4.022761821746826 8.943940162658691 2.790921926498413 C 10.77266979217529 1.540661931037903 12.77665042877197 0.6017019152641296 14.90019989013672 0.0001219049081555568 L 20.49930000305176 5.226301670074463 L 26.0990104675293 0.0001819049066398293 C 28.22343063354492 0.6019719243049622 30.22717094421387 1.541011929512024 32.0555305480957 2.790982007980347 C 33.85733032226563 4.022801876068115 35.44499969482422 5.526051998138428 36.77442932128906 7.258971691131592 C 39.53850173950195 10.86191177368164 40.9995002746582 15.17301177978516 40.9995002746582 19.7262020111084 L 40.9995002746582 26.22500228881836 L 40.9995002746582 26.22600173950195 Z"/></g><line class="c" y2="12" transform="translate(11.5 41.5)"/><line class="c" y2="12" transform="translate(29.5 41.5)"/></svg>