<svg id="unavail" xmlns="http://www.w3.org/2000/svg" width="23" height="23" viewBox="0 0 23 23">
  <g id="Rectangle_4826" data-name="Rectangle 4826" transform="translate(0 2)" fill="#fff" stroke="#bacfc9" stroke-width="1">
    <rect width="22" height="21" rx="3" stroke="none"/>
    <rect x="0.5" y="0.5" width="21" height="20" rx="2.5" fill="none"/>
  </g>
  <path id="Union_2" data-name="Union 2" d="M-8375-12762v-8a4,4,0,0,1,4-4h1v-.5a1.5,1.5,0,0,1,1.5-1.5,1.5,1.5,0,0,1,1.5,1.5v.5h6v-.5a1.5,1.5,0,0,1,1.5-1.5,1.5,1.5,0,0,1,1.5,1.5v.5h2a3,3,0,0,1,3,3v9Z" transform="translate(8375.001 12776)" fill="#bacfc9"/>
  <g id="Group_22983" data-name="Group 22983" transform="translate(-237.5 -504.5)">
    <text id="unavail-2" data-name="unavail" transform="translate(238.5 524.5)" fill="#bacfc9" font-size="6" font-family="Poppins-SemiBold, Poppins" font-weight="600" letter-spacing="-0.05em"><tspan x="0" y="0">unavail</tspan></text>
  </g>
  <line id="Line_542" data-name="Line 542" x2="8" transform="translate(7 9.5)" fill="none" stroke="#fff" stroke-width="2"/>
</svg>
