<svg xmlns="http://www.w3.org/2000/svg" width="54.564" height="62" viewBox="0 0 54.564 62"><defs><style>.a{fill:#141b26;fill-rule:evenodd;}</style></defs><path class="a" d="M53.353,25.027H12.039l39.682-11.5a1.211,1.211,0,0,0,.826-1.5L50.471,4.863A6.779,6.779,0,0,0,43.988,0a6.709,6.709,0,0,0-1.865.265L4.865,11.059a6.755,6.755,0,0,0-4.6,8.348l2.029,7V55.261A6.747,6.747,0,0,0,9.035,62H23.586a1.211,1.211,0,0,0,0-2.422H9.035a4.322,4.322,0,0,1-4.317-4.317V38.782H52.142V55.261a4.322,4.322,0,0,1-4.317,4.317H33.273a1.211,1.211,0,0,0,0,2.422H47.824a6.747,6.747,0,0,0,6.739-6.739V26.238a1.211,1.211,0,0,0-1.211-1.211ZM32,36.36l5.145-8.911h6.692L38.692,36.36Zm-9.489,0,5.145-8.911h6.692L29.2,36.36Zm-9.488,0,5.145-8.911H24.86L19.715,36.36Zm4.5-15.676L8.909,12.409l6.455-1.87a1.2,1.2,0,0,0,.159.187L24.139,19l-6.455,1.87a1.205,1.205,0,0,0-.159-.187ZM33.751,5.445l8.616,8.275-6.455,1.87a1.18,1.18,0,0,0-.159-.187L27.137,7.128l6.455-1.87A1.2,1.2,0,0,0,33.751,5.445Zm-9.114,2.64,8.616,8.275L26.8,18.23a1.18,1.18,0,0,0-.159-.187L18.023,9.769,24.478,7.9A1.279,1.279,0,0,0,24.637,8.086ZM42.8,2.592a4.282,4.282,0,0,1,1.191-.17,4.345,4.345,0,0,1,4.157,3.115l1.74,6.005L45.026,12.95a1.231,1.231,0,0,0-.159-.187L36.251,4.488ZM2.964,15.452a4.285,4.285,0,0,1,2.575-2.067l.711-.206a1.232,1.232,0,0,0,.159.187l8.616,8.275-10.692,3.1-1.74-6.005a4.287,4.287,0,0,1,.371-3.281Zm1.754,12H15.371L10.226,36.36H4.718ZM41.489,36.36l5.145-8.911h5.508V36.36Zm0,0" transform="translate(0 0)"/><path class="a" d="M209.127,351.744a1.21,1.21,0,0,0-.605-1.049l-10.639-6.142a1.211,1.211,0,0,0-1.816,1.049v12.284a1.21,1.21,0,0,0,1.816,1.048l10.639-6.142a1.21,1.21,0,0,0,.605-1.049Zm-10.639,4.045V347.7l7.006,4.045Zm0,0" transform="translate(-172.324 -302.688)"/><path class="a" d="M225.984,492a1.211,1.211,0,1,0,1.211,1.211A1.213,1.213,0,0,0,225.984,492Zm0,0" transform="translate(-197.554 -432.422)"/></svg>