<svg xmlns="http://www.w3.org/2000/svg" width="20.369" height="17.74" viewBox="0 0 20.369 17.74"><defs><style>.a{fill:#c52428;}.b{fill:#fff;font-size:10px;font-family:Poppins-SemiBold, Poppins;font-weight:600;}.c,.d{stroke:none;}.d{fill:#fff;}</style></defs><g transform="translate(4.79 -4.768)"><g transform="translate(-4.79 4.768)"><g transform="translate(0 0)"><g class="a"><path class="c" d="M 16.76068115234375 15.79531002044678 L 3.608501195907593 15.79531002044678 C 3.055211305618286 15.79531002044678 2.564751386642456 15.50638961791992 2.296531200408936 15.02245998382568 C 2.028321266174316 14.53851985931396 2.043261289596558 13.9694995880127 2.336501359939575 13.50030994415283 L 8.912590980529785 2.97859001159668 C 9.188501358032227 2.537139892578125 9.664011001586914 2.273589849472046 10.18459129333496 2.273589849472046 C 10.70517158508301 2.273589849472046 11.1806812286377 2.537139892578125 11.45658111572266 2.97859001159668 L 18.03268051147461 13.50030994415283 C 18.3259220123291 13.9694995880127 18.34086036682129 14.53851985931396 18.07265090942383 15.02245998382568 C 17.8044319152832 15.50638961791992 17.3139705657959 15.79531002044678 16.76068115234375 15.79531002044678 Z"/><path class="d" d="M 10.18459129333496 2.773579597473145 C 10.01794147491455 2.773579597473145 9.60172176361084 2.819379806518555 9.336591720581055 3.243590354919434 L 2.760501861572266 13.76531028747559 C 2.47871208190918 14.21617031097412 2.647991180419922 14.62516021728516 2.733861923217773 14.78007030487061 C 2.819721221923828 14.93498992919922 3.076820373535156 15.29531002044678 3.608501434326172 15.29531002044678 L 16.76068115234375 15.29531002044678 C 17.29236221313477 15.29531002044678 17.54946136474609 14.93498992919922 17.63532066345215 14.78007030487061 C 17.72119140625 14.62516021728516 17.89047050476074 14.21617031097412 17.60868072509766 13.76531028747559 L 11.0325813293457 3.243590354919434 C 10.76745128631592 2.819379806518555 10.35123157501221 2.773579597473145 10.18459129333496 2.773579597473145 M 10.18459033966064 1.773585319519043 C 10.83675384521484 1.773585319519043 11.48891639709473 2.086919784545898 11.88058090209961 2.713589668273926 L 18.45668029785156 13.23530960083008 C 19.28924179077148 14.5673999786377 18.33155059814453 16.29530906677246 16.76068115234375 16.29530906677246 L 3.608501434326172 16.29530906677246 C 2.037631988525391 16.29530906677246 1.079940795898438 14.5673999786377 1.912500381469727 13.23530960083008 L 8.488591194152832 2.713589668273926 C 8.880261421203613 2.086919784545898 9.532425880432129 1.773585319519043 10.18459033966064 1.773585319519043 Z"/></g></g><text class="b" transform="translate(8.185 13.74)"><tspan x="0" y="0">!</tspan></text></g></g></svg>