<svg xmlns="http://www.w3.org/2000/svg" width="70.709" height="62.636" viewBox="0 0 70.709 62.636">
  <g id="Group_22690" data-name="Group 22690" transform="translate(-1178.329 -4991.609)">
    <g id="Group_21502" data-name="Group 21502" transform="translate(1178.33 4990.568)">
      <g id="Ellipse_3" data-name="Ellipse 3" transform="translate(10.183 4)" fill="none" stroke="#fff" stroke-width="5">
        <ellipse cx="10.786" cy="10.786" rx="10.786" ry="10.786" stroke="none"/>
        <ellipse cx="10.786" cy="10.786" rx="8.286" ry="8.286" fill="none"/>
      </g>
      <g id="Subtraction_3" data-name="Subtraction 3" transform="translate(-14136.67 17731.211)" fill="none">
        <path d="M14165.013-17674.949h-28.344v-6.646a20.821,20.821,0,0,1,6.145-14.83,20.813,20.813,0,0,1,14.825-6.145,20.836,20.836,0,0,1,14.83,6.145,21.092,21.092,0,0,1,2.944,3.686,24.185,24.185,0,0,0-3.526,2.912,23.681,23.681,0,0,0-6.874,14.877Z" stroke="none"/>
        <path d="M 14160.7734375 -17679.94921875 C 14162.01953125 -17684.990234375 14164.62890625 -17689.642578125 14168.3525390625 -17693.365234375 C 14168.3662109375 -17693.37890625 14168.3798828125 -17693.392578125 14168.3935546875 -17693.40625 C 14165.4453125 -17696.09765625 14161.654296875 -17697.5703125 14157.638671875 -17697.5703125 C 14153.373046875 -17697.5703125 14149.3642578125 -17695.908203125 14146.3515625 -17692.892578125 L 14146.3486328125 -17692.890625 L 14146.3466796875 -17692.888671875 C 14143.330078125 -17689.875 14141.6689453125 -17685.865234375 14141.6689453125 -17681.595703125 L 14141.6689453125 -17679.94921875 L 14160.7734375 -17679.94921875 M 14165.0126953125 -17674.94921875 L 14165.01171875 -17674.94921875 L 14136.6689453125 -17674.94921875 L 14136.6689453125 -17681.595703125 C 14136.6689453125 -17687.201171875 14138.8515625 -17692.46875 14142.8134765625 -17696.42578125 C 14146.771484375 -17700.388671875 14152.0361328125 -17702.5703125 14157.638671875 -17702.5703125 C 14163.2392578125 -17702.5703125 14168.505859375 -17700.388671875 14172.46875 -17696.42578125 C 14173.5888671875 -17695.306640625 14174.5791015625 -17694.06640625 14175.4130859375 -17692.740234375 C 14174.158203125 -17691.890625 14172.9716796875 -17690.912109375 14171.88671875 -17689.828125 C 14167.8935546875 -17685.8359375 14165.4521484375 -17680.552734375 14165.0126953125 -17674.951171875 L 14165.0126953125 -17674.94921875 Z" stroke="none" fill="#fff"/>
      </g>
      <g id="Ellipse_3-2" data-name="Ellipse 3" transform="translate(33.525 1.041)" fill="none" stroke="#fff" stroke-width="5">
        <ellipse cx="14.463" cy="14.463" rx="14.463" ry="14.463" stroke="none"/>
        <ellipse cx="14.463" cy="14.463" rx="11.963" ry="11.963" fill="none"/>
      </g>
    </g>
    <g id="Subtraction_5" data-name="Subtraction 5" transform="translate(1201.6 5023.006)" fill="none">
      <path d="M47.438,31.24H0v-7.52A23.719,23.719,0,0,1,40.491,6.947a23.564,23.564,0,0,1,6.947,16.772v7.519Z" stroke="none"/>
      <path d="M 42.43810653686523 26.23990631103516 L 42.43810653686523 23.7194938659668 C 42.43810653686523 18.71910667419434 40.49100875854492 14.01816177368164 36.95547485351563 10.48263931274414 C 33.41994094848633 6.947105884552002 28.71899604797363 5.000005722045898 23.71859550476074 5.000005722045898 C 18.71862983703613 5.000005722045898 14.01797389984131 6.947094917297363 10.48256206512451 10.48259449005127 C 6.947084903717041 14.01816177368164 5.000007152557373 18.7191162109375 5.000007152557373 23.7194938659668 L 5.000007152557373 26.23990631103516 L 42.43810653686523 26.23990631103516 M 47.43810653686523 31.23990631103516 L 6.916639449627837e-06 31.23990631103516 L 6.916639449627837e-06 23.7194938659668 C 6.916639449627837e-06 17.38360595703125 2.467151403427124 11.42705059051514 6.946984767913818 6.947105884552002 C 11.42677402496338 2.467205762863159 17.3830509185791 5.850050001754425e-06 23.71859550476074 5.850050001754425e-06 C 30.05455207824707 5.850050001754425e-06 36.0111083984375 2.467205762863159 40.49100875854492 6.947105884552002 C 44.97090530395508 11.42699432373047 47.43810653686523 17.3835506439209 47.43810653686523 23.7194938659668 L 47.43810653686523 31.23890495300293 L 47.43810653686523 31.23990631103516 Z" stroke="none" fill="#fff"/>
    </g>
  </g>
</svg>
