<svg xmlns="http://www.w3.org/2000/svg" width="96" height="96" viewBox="0 0 96 96">
  <g id="Group_22694" data-name="Group 22694" transform="translate(-1011 -1621)">
    <rect id="Rectangle_4580" data-name="Rectangle 4580" width="96" height="96" transform="translate(1011 1621)" fill="#236feb"/>
    <path id="Icon_ionic-ios-arrow-round-forward" data-name="Icon ionic-ios-arrow-round-forward" d="M38.514,11.865a2.181,2.181,0,0,0-.017,3.071L48.643,25.1H10.028a2.169,2.169,0,0,0,0,4.339h38.6L38.48,39.6a2.2,2.2,0,0,0,.017,3.071,2.161,2.161,0,0,0,3.054-.017L55.3,28.8h0a2.436,2.436,0,0,0,.451-.684,2.071,2.071,0,0,0,.167-.834,2.175,2.175,0,0,0-.617-1.519L41.551,11.915A2.126,2.126,0,0,0,38.514,11.865Z" transform="translate(1026.081 1641.727)" fill="#fff"/>
  </g>
</svg>
