<svg xmlns="http://www.w3.org/2000/svg" width="60.898" height="64" viewBox="0 0 60.898 64">
  <g id="Group_22696" data-name="Group 22696" transform="translate(-694.184 -659.5)">
    <g id="Group_5" data-name="Group 5" transform="translate(694.184 659.5)">
      <g id="Ellipse_3" data-name="Ellipse 3" transform="translate(8.453)" fill="#fff" stroke="#121f36" stroke-width="3">
        <circle cx="13.208" cy="13.208" r="13.208" stroke="none"/>
        <circle cx="13.208" cy="13.208" r="11.708" fill="none"/>
      </g>
      <g id="Subtraction_1" data-name="Subtraction 1" transform="translate(0 30.405)" fill="#fff">
        <path d="M 41.82240295410156 26.21190643310547 L 1.500001430511475 26.21190643310547 L 1.500001430511475 20.84310722351074 C 1.500001430511475 16.36523628234863 2.936601400375366 12.12573719024658 5.654481410980225 8.582926750183105 C 6.962451457977295 6.87796688079834 8.52446174621582 5.398996829986572 10.29711151123047 4.187087059020996 C 11.8641881942749 3.11572265625 13.56209468841553 2.276832818984985 15.35434055328369 1.68748140335083 L 20.63779067993164 6.618136882781982 L 21.6612606048584 7.573266983032227 L 22.6846809387207 6.618076801300049 L 27.96760177612305 1.687358379364014 C 29.75984954833984 2.276705503463745 31.45773315429688 3.115586519241333 33.02487182617188 4.186976909637451 C 34.79756164550781 5.398886680603027 36.35962295532227 6.877886772155762 37.66768264770508 8.582886695861816 C 40.38572311401367 12.12576675415039 41.82240295410156 16.36527633666992 41.82240295410156 20.84310722351074 L 41.82240295410156 26.21190643310547 Z" stroke="none"/>
        <path d="M 40.32240295410156 24.71190643310547 L 40.32240295410156 20.84310722351074 C 40.32240295410156 16.69833755493164 38.99288177490234 12.77454662322998 36.47756958007813 9.495926856994629 C 35.26626205444336 7.917037010192871 33.81978225708008 6.54746675491333 32.17831039428711 5.425256729125977 C 30.97102355957031 4.599874973297119 29.68011283874512 3.923682689666748 28.32488822937012 3.405718326568604 L 23.70815086364746 7.714666843414307 L 21.66132164001465 9.625046730041504 L 19.61437225341797 7.714776992797852 L 14.99710273742676 3.405819892883301 C 13.64189338684082 3.923782587051392 12.35091876983643 4.600006580352783 11.14368152618408 5.425366878509521 C 9.502241134643555 6.54755687713623 8.055831909179688 7.917096614837646 6.844611644744873 9.495946884155273 C 4.329441547393799 12.77449703216553 3.000001430511475 16.69828605651855 3.000001430511475 20.84310722351074 L 3.000001430511475 24.71190643310547 L 40.32240295410156 24.71190643310547 M 43.32240295410156 27.71190643310547 L 1.477050773246447e-06 27.71190643310547 L 1.477050773246447e-06 20.84310722351074 C 1.477050773246447e-06 16.03218650817871 1.54375147819519 11.47696685791016 4.464351654052734 7.66991662979126 C 5.869091510772705 5.83881664276123 7.546691417694092 4.25041675567627 9.450541496276855 2.948816776275635 C 11.38289165496826 1.627716898918152 13.50049114227295 0.635546863079071 15.74449157714844 -0.0001331588719040155 L 21.66120147705078 5.521496772766113 L 27.57739067077637 -0.0002731588610913604 C 29.82212066650391 0.6356068253517151 31.93942070007324 1.627856850624084 33.87143325805664 2.948696851730347 C 35.77532958984375 4.250316619873047 37.45298004150391 5.838737010955811 38.85779190063477 7.669847011566162 C 41.77856063842773 11.47697639465332 43.32240295410156 16.03221702575684 43.32240295410156 20.84310722351074 L 43.32240295410156 27.71090698242188 L 43.32240295410156 27.71190643310547 Z" stroke="none" fill="#121f36"/>
      </g>
      <line id="Line_8" data-name="Line 8" y2="12.68" transform="translate(12.151 43.851)" fill="none" stroke="#121f36" stroke-width="3"/>
      <line id="Line_9" data-name="Line 9" y2="12.68" transform="translate(31.171 43.851)" fill="none" stroke="#121f36" stroke-width="3"/>
    </g>
    <g id="Group_6338" data-name="Group 6338" transform="translate(728.665 697.084)">
      <circle id="Ellipse_243" data-name="Ellipse 243" cx="13.208" cy="13.208" r="13.208" transform="translate(0 0)" fill="#236feb"/>
      <path id="Path_3373" data-name="Path 3373" d="M1013.386,202.985l5.747,5.47,6.207-5.835,4.936-4.64" transform="translate(-1008.623 -189.548)" fill="none" stroke="#fff" stroke-width="3"/>
    </g>
  </g>
</svg>
