<?xml version="1.0" encoding="utf-8"?>
<!-- Generator: Adobe Illustrator 25.2.1, SVG Export Plug-In . SVG Version: 6.00 Build 0)  -->
<svg version="1.1" id="Layer_1" xmlns="http://www.w3.org/2000/svg" xmlns:xlink="http://www.w3.org/1999/xlink" x="0px" y="0px"
	 viewBox="0 0 87.3 65.7" style="enable-background:new 0 0 87.3 65.7;" xml:space="preserve">
<style type="text/css">
	.st0{fill:#FFFFFF;}
</style>
<g id="Group_21945" transform="translate(-153.265 -275.596)">
	<g id="Group_21393" transform="translate(153.265 275.596)">
		<g id="Dibujo" transform="translate(11.434 13.34)">
			<g id="Group_21391" transform="translate(0 0)">
				<path id="Path_13005" class="st0" d="M5.8,26.4c-4.5-9.1-0.8-20,8.3-24.5c8.1-4,18-1.5,23.2,6c0.2,0,0.4,0,0.7,0
					c9.9,0,18.6,6.5,21.3,15.9c0.7-0.1,1.5-0.2,2.2-0.2c7.9,0,14.4,6.4,14.4,14.4s-6.4,14.4-14.4,14.4H14.4C6.5,52.3,0,45.9,0,38
					C0,33.4,2.2,29.1,5.8,26.4L5.8,26.4z M22.2,5.2C15,5.2,9.2,11.1,9.2,18.3c0,2,0.5,4,1.4,5.8c1.3-0.4,2.6-0.5,3.9-0.5
					c0.7,0,1.5,0.1,2.2,0.2c2.1-7.1,7.6-12.7,14.7-14.9C28.8,6.5,25.6,5.2,22.2,5.2z M14.4,47.1h47.1c5.1,0.1,9.2-4,9.3-9.1
					s-4-9.2-9.1-9.3c-0.1,0-0.1,0-0.2,0c-0.5,0-1.1,0.1-1.6,0.2v2.4c0,1.4-1.2,2.6-2.6,2.6c-1.4,0-2.6-1.2-2.6-2.6v-4.2
					C53.1,17.9,44.3,11.7,35,13.3c-7.1,1.2-12.6,6.8-13.9,13.9v4.2c0,1.4-1.2,2.6-2.6,2.6S16,32.8,16,31.4V29
					c-0.5-0.1-1-0.2-1.6-0.2c-5.1-0.1-9.2,4-9.3,9.1s4,9.2,9.1,9.3C14.3,47.1,14.3,47.1,14.4,47.1L14.4,47.1z"/>
			</g>
		</g>
		<g id="Group_21392" transform="translate(0)">
			<path id="Path_13006" class="st0" d="M34,10.5c-1.4,0-2.6-1.2-2.6-2.6V2.6C31.4,1.2,32.6,0,34,0s2.6,1.2,2.6,2.6v5.2
				C36.6,9.3,35.5,10.5,34,10.5z"/>
			<path id="Path_13007" class="st0" d="M2.6,31.4h5.2c1.4,0,2.6,1.2,2.6,2.6s-1.2,2.6-2.6,2.6l0,0H2.6C1.2,36.6,0,35.5,0,34
				S1.2,31.4,2.6,31.4z"/>
			<path id="Path_13008" class="st0" d="M15.5,18.1c-0.7,0-1.4-0.3-1.8-0.8L10,13.7c-1-1-1-2.7,0-3.7c1-1,2.7-1,3.7,0l3.7,3.7
				c1,1,1,2.7,0,3.7C16.9,17.9,16.2,18.1,15.5,18.1z"/>
			<path id="Path_13009" class="st0" d="M54.4,17.4c-1,1-2.7,1-3.7,0c-1-1-1-2.7,0-3.7l3.7-3.7c1-1,2.7-1,3.7,0s1,2.7,0,3.7
				L54.4,17.4z"/>
		</g>
	</g>
</g>
</svg>
