<?xml version="1.0" encoding="utf-8"?>
<!-- Generator: Adobe Illustrator 25.2.1, SVG Export Plug-In . SVG Version: 6.00 Build 0)  -->
<svg version="1.1" id="Layer_1" xmlns="http://www.w3.org/2000/svg" xmlns:xlink="http://www.w3.org/1999/xlink" x="0px" y="0px"
	 viewBox="0 0 392.1 412.2" style="enable-background:new 0 0 392.1 412.2;" xml:space="preserve">
<style type="text/css">
	.st0{fill:#971D1F;}
	.st1{fill:none;stroke:#000000;stroke-width:56;stroke-miterlimit:10;}
</style>
<g id="casting">
	<path d="M30.8,148.5V161h7c1.8,0,3-0.3,3.6-0.8c0.8-0.7,1.3-2,1.4-3.8h0.9v11.1h-0.9c-0.2-1.5-0.4-2.5-0.7-3
		c-0.3-0.5-0.7-1-1.4-1.3s-1.6-0.5-3-0.5h-7v10.5c0,1.4,0.1,2.3,0.2,2.6s0.3,0.5,0.7,0.7s0.9,0.3,1.8,0.3h5.4c1.8,0,3.1-0.1,3.9-0.4
		s1.6-0.7,2.3-1.5c1-1,2-2.4,3-4.4H49l-2.7,8H21.8v-0.9h1.1c0.8,0,1.5-0.2,2.1-0.5c0.5-0.2,0.8-0.6,1-1.1s0.3-1.5,0.3-3.1v-20.6
		c0-2-0.2-3.3-0.6-3.7c-0.6-0.6-1.5-0.9-2.8-0.9h-1.1v-0.9h24.5l0.4,7h-0.9c-0.3-1.7-0.7-2.8-1.1-3.4s-1-1.1-1.8-1.4
		c-0.6-0.2-1.7-0.4-3.3-0.4H30.8z"/>
	<path d="M71.9,160.9l6.8,10.2c1.9,2.8,3.3,4.6,4.2,5.3s2.1,1.2,3.5,1.2v0.9H72.8v-0.9c0.9,0,1.6-0.1,2-0.3c0.3-0.1,0.6-0.4,0.8-0.6
		s0.3-0.6,0.3-0.9c0-0.4-0.1-0.7-0.2-1.1c-0.1-0.3-0.5-1-1.3-2.1l-5.4-8.2l-6.7,8.5c-0.7,0.9-1.1,1.5-1.3,1.8s-0.2,0.6-0.2,0.9
		c0,0.5,0.2,0.9,0.6,1.2s1.2,0.5,2.4,0.6v0.9H52.6v-0.9c0.8-0.1,1.5-0.2,2.1-0.5c1-0.4,1.9-1,2.8-1.6s1.9-1.7,3-3.2l7.5-9.5
		l-6.3-9.2c-1.7-2.5-3.1-4.1-4.3-4.9s-2.6-1.2-4.1-1.2v-0.9H68v0.9c-1.2,0-2.1,0.2-2.6,0.6s-0.7,0.8-0.7,1.2c0,0.6,0.4,1.4,1.1,2.5
		l4.9,7.3l5.6-7.1c0.7-0.8,1.1-1.4,1.2-1.7s0.2-0.6,0.2-1s-0.1-0.6-0.3-0.9c-0.2-0.3-0.5-0.6-0.9-0.7s-1.1-0.2-2.2-0.2v-0.9h11.3
		v0.9c-0.9,0-1.6,0.2-2.2,0.4c-0.8,0.4-1.6,0.8-2.3,1.5s-1.7,1.7-3,3.4L71.9,160.9z"/>
	<path d="M116.9,146.7l0.4,7.5h-0.9c-0.2-1.3-0.4-2.2-0.7-2.8c-0.5-0.9-1.1-1.6-1.9-2s-1.9-0.6-3.2-0.6h-4.5V173
		c0,2,0.2,3.2,0.6,3.7c0.6,0.7,1.5,1,2.7,1h1.1v0.9H97.1v-0.9h1.1c1.3,0,2.3-0.4,2.9-1.2c0.3-0.5,0.5-1.6,0.5-3.4v-24.3h-3.8
		c-1.5,0-2.5,0.1-3.2,0.3c-0.8,0.3-1.5,0.9-2.1,1.7s-0.9,2-1,3.4h-0.9l0.4-7.5H116.9z"/>
	<path d="M153,178.5h-8.5l-10.8-14.9c-0.8,0-1.4,0-1.9,0c-0.2,0-0.4,0-0.7,0s-0.5,0-0.7,0v9.2c0,2,0.2,3.2,0.7,3.7
		c0.6,0.7,1.5,1,2.7,1h1.2v0.9h-13.6v-0.9h1.2c1.3,0,2.3-0.4,2.9-1.3c0.3-0.5,0.5-1.6,0.5-3.4v-20.5c0-2-0.2-3.2-0.7-3.7
		c-0.6-0.7-1.5-1-2.7-1h-1.2v-0.9H133c3.4,0,5.9,0.2,7.5,0.7s3,1.4,4.1,2.7s1.7,2.9,1.7,4.7c0,2-0.6,3.6-1.9,5.1s-3.2,2.5-5.9,3
		l6.6,9.1c1.5,2.1,2.8,3.5,3.9,4.2s2.5,1.1,4.2,1.3V178.5z M130.5,162.2c0.3,0,0.6,0,0.8,0s0.4,0,0.5,0c3,0,5.3-0.7,6.9-2
		s2.3-3,2.3-5c0-2-0.6-3.6-1.9-4.8s-2.9-1.9-4.9-1.9c-0.9,0-2.1,0.1-3.7,0.4V162.2z"/>
	<path d="M176.7,167.9h-12.3l-2.2,5c-0.5,1.2-0.8,2.2-0.8,2.8c0,0.5,0.2,0.9,0.7,1.3s1.5,0.6,3,0.7v0.9h-10v-0.9
		c1.3-0.2,2.2-0.5,2.6-0.9c0.8-0.8,1.7-2.3,2.6-4.6l11.2-26.2h0.8l11.1,26.4c0.9,2.1,1.7,3.5,2.4,4.1s1.7,1,3,1.1v0.9h-12.5v-0.9
		c1.3-0.1,2.1-0.3,2.6-0.6s0.7-0.8,0.7-1.3c0-0.7-0.3-1.8-0.9-3.3L176.7,167.9z M176.1,166.1l-5.4-12.8l-5.5,12.8H176.1z"/>
	<path d="M213.1,148.5V161h7c1.8,0,3-0.3,3.6-0.8c0.8-0.7,1.3-2,1.4-3.8h0.9v11.1h-0.9c-0.2-1.5-0.4-2.5-0.7-3
		c-0.3-0.5-0.7-1-1.4-1.3s-1.6-0.5-3-0.5h-7v10.5c0,1.4,0.1,2.3,0.2,2.6s0.3,0.5,0.7,0.7s0.9,0.3,1.8,0.3h5.4c1.8,0,3.1-0.1,3.9-0.4
		s1.6-0.7,2.3-1.5c1-1,2-2.4,3-4.4h0.9l-2.7,8h-24.5v-0.9h1.1c0.8,0,1.5-0.2,2.1-0.5c0.5-0.2,0.8-0.6,1-1.1s0.3-1.5,0.3-3.1v-20.6
		c0-2-0.2-3.3-0.6-3.7c-0.6-0.6-1.5-0.9-2.8-0.9h-1.1v-0.9h24.5l0.4,7H228c-0.3-1.7-0.7-2.8-1.1-3.4s-1-1.1-1.8-1.4
		c-0.6-0.2-1.7-0.4-3.3-0.4H213.1z"/>
	<path d="M254.2,160.9l6.8,10.2c1.9,2.8,3.3,4.6,4.2,5.3s2.1,1.2,3.5,1.2v0.9H255v-0.9c0.9,0,1.6-0.1,2-0.3c0.3-0.1,0.6-0.4,0.8-0.6
		s0.3-0.6,0.3-0.9c0-0.4-0.1-0.7-0.2-1.1c-0.1-0.3-0.5-1-1.3-2.1l-5.4-8.2l-6.7,8.5c-0.7,0.9-1.1,1.5-1.3,1.8s-0.2,0.6-0.2,0.9
		c0,0.5,0.2,0.9,0.6,1.2s1.2,0.5,2.4,0.6v0.9h-11.3v-0.9c0.8-0.1,1.5-0.2,2.1-0.5c1-0.4,1.9-1,2.8-1.6s1.9-1.7,3-3.2l7.5-9.5
		l-6.3-9.2c-1.7-2.5-3.1-4.1-4.3-4.9s-2.6-1.2-4.1-1.2v-0.9h14.7v0.9c-1.2,0-2.1,0.2-2.6,0.6s-0.7,0.8-0.7,1.2
		c0,0.6,0.4,1.4,1.1,2.5l4.9,7.3l5.6-7.1c0.7-0.8,1.1-1.4,1.2-1.7s0.2-0.6,0.2-1s-0.1-0.6-0.3-0.9c-0.2-0.3-0.5-0.6-0.9-0.7
		s-1.1-0.2-2.2-0.2v-0.9H268v0.9c-0.9,0-1.6,0.2-2.2,0.4c-0.8,0.4-1.6,0.8-2.3,1.5s-1.7,1.7-3,3.4L254.2,160.9z"/>
	<path d="M299.2,146.7l0.4,7.5h-0.9c-0.2-1.3-0.4-2.2-0.7-2.8c-0.5-0.9-1.1-1.6-1.9-2s-1.9-0.6-3.2-0.6h-4.5V173
		c0,2,0.2,3.2,0.6,3.7c0.6,0.7,1.5,1,2.7,1h1.1v0.9h-13.5v-0.9h1.1c1.3,0,2.3-0.4,2.9-1.2c0.3-0.5,0.5-1.6,0.5-3.4v-24.3H280
		c-1.5,0-2.5,0.1-3.2,0.3c-0.8,0.3-1.5,0.9-2.1,1.7s-0.9,2-1,3.4h-0.9l0.4-7.5H299.2z"/>
	<path d="M335.3,178.5h-8.5l-10.8-14.9c-0.8,0-1.4,0-1.9,0c-0.2,0-0.4,0-0.7,0s-0.5,0-0.7,0v9.2c0,2,0.2,3.2,0.7,3.7
		c0.6,0.7,1.5,1,2.7,1h1.2v0.9h-13.6v-0.9h1.2c1.3,0,2.3-0.4,2.9-1.3c0.3-0.5,0.5-1.6,0.5-3.4v-20.5c0-2-0.2-3.2-0.7-3.7
		c-0.6-0.7-1.5-1-2.7-1h-1.2v-0.9h11.6c3.4,0,5.9,0.2,7.5,0.7s3,1.4,4.1,2.7s1.7,2.9,1.7,4.7c0,2-0.6,3.6-1.9,5.1s-3.2,2.5-5.9,3
		l6.6,9.1c1.5,2.1,2.8,3.5,3.9,4.2s2.5,1.1,4.2,1.3V178.5z M312.8,162.2c0.3,0,0.6,0,0.8,0s0.4,0,0.5,0c3,0,5.3-0.7,6.9-2
		s2.3-3,2.3-5c0-2-0.6-3.6-1.9-4.8s-2.9-1.9-4.9-1.9c-0.9,0-2.1,0.1-3.7,0.4V162.2z"/>
	<path d="M359,167.9h-12.3l-2.2,5c-0.5,1.2-0.8,2.2-0.8,2.8c0,0.5,0.2,0.9,0.7,1.3s1.5,0.6,3,0.7v0.9h-10v-0.9
		c1.3-0.2,2.2-0.5,2.6-0.9c0.8-0.8,1.7-2.3,2.6-4.6l11.2-26.2h0.8l11.1,26.4c0.9,2.1,1.7,3.5,2.4,4.1s1.7,1,3,1.1v0.9h-12.5v-0.9
		c1.3-0.1,2.1-0.3,2.6-0.6s0.7-0.8,0.7-1.3c0-0.7-0.3-1.8-0.9-3.3L359,167.9z M358.4,166.1l-5.4-12.8l-5.5,12.8H358.4z"/>
</g>
<g id="x">
	<g id="topleft-x">
		<g>
			<path class="st0" d="M138.7,54.6c-4.5-6.7-8.8-13.7-12.2-21c-2-4.3-4.6-9.3-3.1-14.2c1.2-3.8,4.7-6.8,8-8.7
				c8.9-5.1,19.1-4.7,28.9-5.2c0,0,0-4.1,0-4.1H11.9l0.5,3.8c16.5,0.5,32.2,7,44.9,15.2c12.6,8.2,22.5,27.8,40.6,54.2l30.9,48.2
				h51.8L138.7,54.6z"/>
		</g>
	</g>
	<path id="topright-x" class="st0" d="M273.2,67.8c13.6-17.5,24.6-30.8,32.1-37.3c5.5-4.8,10.7-10.4,17.1-14.1
		c7.3-4.2,15.6-6.8,23.8-8.7c1.6-0.4,18.8-3.5,18.8-3.6c0,0,0-4.1,0-4.1h-134l0.1,4.1c12,0.2,23,3.6,26.9,5
		c13.3,4.9,13.9,16.3,8.3,27.9C260.7,48,254.6,58.8,248,69.2c0,0-33.4,52.7-33.4,52.7h22.3L273.2,67.8z"/>
	<path id="bottomleft-x" class="st0" d="M85.4,274.1c-9.9,15.1-19,26.4-27.3,33.7c-8.3,7.3-17.3,13.1-27,17.5
		c-5.8,2.7-19.1,4.4-27.5,5.2v9.2h132.7l0.3-8c-12.7-0.5-25.5-2.2-30.4-5.7c-6.1-4.3-9.1-14.5-7.9-21.1c1.7-8.8,7.2-15.3,11.7-22.8
		c0,0,46.6-78.2,46.6-78.2h-28.7L85.4,274.1z"/>
	<path id="bottomright-x" class="st0" d="M347.8,317.4c-9.7-7.9-24.7-26.8-44.8-56.8l-38-56.7h-56.8l48.9,74
		c8,11.8,12.6,19.1,13.7,22c1.5,3.8,2.2,7.7,2.2,11.5c0,3.2-1.1,6.3-3.4,9.4c-2.2,3.1-5.1,5.4-8.6,6.9c-4.7,1.8-15.3,3-24.9,3.2
		l0.2,9h152.1v-7.1C373.5,331.8,357.5,325.3,347.8,317.4z"/>
</g>
<g id="extraextra">
	<path d="M24.1,365.1l0.6,8.1h-0.6c-0.7-2.4-1.8-4.2-3.1-5.2s-3-1.6-4.9-1.6c-1.6,0-3,0.4-4.3,1.2s-2.3,2.1-3,3.8s-1.1,3.9-1.1,6.6
		c0,2.2,0.3,4,1,5.6s1.7,2.8,3.2,3.6s3,1.3,4.8,1.3c1.6,0,2.9-0.3,4.1-1c1.2-0.7,2.5-2,3.9-3.9l0.6,0.4c-1.2,2.1-2.6,3.7-4.2,4.7
		c-1.6,1-3.5,1.5-5.7,1.5c-4,0-7.1-1.5-9.3-4.4c-1.6-2.2-2.5-4.7-2.5-7.7c0-2.4,0.5-4.6,1.6-6.6s2.6-3.5,4.4-4.6s4-1.6,6.2-1.6
		c1.7,0,3.5,0.4,5.2,1.3c0.5,0.3,0.9,0.4,1.1,0.4c0.3,0,0.6-0.1,0.8-0.3c0.3-0.3,0.5-0.8,0.7-1.3H24.1z"/>
	<path d="M81.3,381.5H72l-1.6,3.8c-0.4,0.9-0.6,1.6-0.6,2.1c0,0.4,0.2,0.7,0.5,1s1.1,0.5,2.3,0.5v0.7H65v-0.7c1-0.2,1.7-0.4,2-0.7
		c0.6-0.6,1.3-1.7,2-3.4l8.5-19.6H78l8.4,19.8c0.7,1.6,1.3,2.6,1.8,3.1c0.6,0.5,1.3,0.7,2.3,0.8v0.7H81v-0.7c1,0,1.6-0.2,1.9-0.5
		s0.5-0.6,0.5-1c0-0.5-0.2-1.3-0.7-2.4L81.3,381.5z M80.8,380.2l-4.1-9.6l-4.2,9.6H80.8z"/>
	<path d="M145.8,365.1v8.2h-0.7c-0.2-1.6-0.6-2.8-1.1-3.8s-1.3-1.7-2.4-2.2c-1-0.6-2.1-0.8-3.2-0.8c-1.2,0-2.2,0.4-3.1,1.1
		s-1.2,1.6-1.2,2.5c0,0.7,0.3,1.4,0.8,2c0.7,0.9,2.5,2.1,5.2,3.5c2.2,1.2,3.8,2.1,4.6,2.8s1.5,1.4,1.9,2.3c0.4,0.9,0.7,1.8,0.7,2.7
		c0,1.8-0.7,3.4-2.1,4.7c-1.4,1.3-3.2,2-5.5,2c-0.7,0-1.4-0.1-2-0.2c-0.4-0.1-1.1-0.3-2.3-0.6c-1.2-0.4-1.9-0.6-2.2-0.6
		c-0.3,0-0.5,0.1-0.7,0.3c-0.2,0.2-0.3,0.5-0.4,1.1h-0.7v-8.2h0.7c0.3,1.7,0.7,3,1.2,3.8c0.5,0.8,1.3,1.6,2.4,2.1
		c1.1,0.6,2.2,0.8,3.5,0.8c1.5,0,2.6-0.4,3.5-1.2s1.3-1.7,1.3-2.7c0-0.6-0.2-1.2-0.5-1.8c-0.3-0.6-0.8-1.2-1.5-1.7
		c-0.5-0.4-1.7-1.1-3.8-2.2s-3.5-2.1-4.4-2.7c-0.9-0.7-1.5-1.4-2-2.2c-0.4-0.8-0.7-1.7-0.7-2.7c0-1.7,0.7-3.2,2-4.4
		c1.3-1.2,3-1.9,5.1-1.9c1.3,0,2.6,0.3,4.1,0.9c0.7,0.3,1.1,0.4,1.4,0.4c0.3,0,0.6-0.1,0.8-0.3c0.2-0.2,0.4-0.5,0.5-1.1H145.8z"/>
	<path d="M208.6,365.6l0.3,5.6h-0.7c-0.1-1-0.3-1.7-0.5-2.1c-0.4-0.7-0.9-1.2-1.5-1.5s-1.4-0.5-2.4-0.5h-3.4v18.2
		c0,1.5,0.2,2.4,0.5,2.7c0.4,0.5,1.1,0.7,2.1,0.7h0.8v0.7h-10.2v-0.7h0.9c1,0,1.7-0.3,2.2-0.9c0.3-0.4,0.4-1.2,0.4-2.6v-18.2h-2.9
		c-1.1,0-1.9,0.1-2.4,0.2c-0.6,0.2-1.1,0.7-1.6,1.3c-0.4,0.6-0.7,1.5-0.8,2.6h-0.7l0.3-5.6H208.6z"/>
	<path d="M259.2,388.8v0.7h-10.3v-0.7h0.9c1,0,1.7-0.3,2.2-0.9c0.3-0.4,0.4-1.3,0.4-2.7v-15.4c0-1.2-0.1-2-0.2-2.4
		c-0.1-0.3-0.4-0.5-0.7-0.8c-0.5-0.3-1.1-0.4-1.6-0.4h-0.9v-0.7h10.3v0.7h-0.9c-1,0-1.7,0.3-2.1,0.9c-0.3,0.4-0.4,1.3-0.4,2.7v15.4
		c0,1.2,0.1,2,0.2,2.4c0.1,0.3,0.4,0.5,0.7,0.8c0.5,0.3,1,0.4,1.6,0.4H259.2z"/>
	<path d="M297.8,365.6h6.5l14.7,17.9v-13.7c0-1.5-0.2-2.4-0.5-2.7c-0.4-0.5-1.1-0.7-2.1-0.7h-0.8v-0.7h8.4v0.7h-0.9
		c-1,0-1.7,0.3-2.2,0.9c-0.3,0.4-0.4,1.2-0.4,2.6v20.1H320l-15.9-19.2v14.7c0,1.5,0.2,2.4,0.5,2.7c0.4,0.5,1.1,0.7,2.1,0.7h0.9v0.7
		h-8.4v-0.7h0.8c1,0,1.8-0.3,2.2-0.9c0.3-0.4,0.4-1.2,0.4-2.6v-16.6c-0.7-0.8-1.2-1.3-1.6-1.6c-0.4-0.3-0.9-0.5-1.6-0.7
		c-0.3-0.1-0.9-0.2-1.6-0.2V365.6z"/>
	<path d="M385.1,365.1l0.6,7.5h-0.6c-0.6-1.9-1.4-3.3-2.4-4.2c-1.4-1.4-3.3-2.1-5.5-2.1c-3.1,0-5.4,1.2-7,3.6c-1.3,2-2,4.4-2,7.2
		c0,2.3,0.4,4.3,1.3,6.2c0.9,1.9,2.1,3.2,3.5,4.1c1.4,0.9,2.9,1.3,4.4,1.3c0.9,0,1.7-0.1,2.6-0.3c0.8-0.2,1.6-0.6,2.4-1v-6.9
		c0-1.2-0.1-2-0.3-2.3c-0.2-0.4-0.5-0.7-0.9-0.8c-0.4-0.2-1.1-0.3-2-0.3v-0.7h9.3v0.7h-0.4c-0.9,0-1.6,0.3-1.9,0.9
		c-0.2,0.4-0.4,1.3-0.4,2.6v7.3c-1.4,0.7-2.7,1.3-4,1.6s-2.8,0.5-4.4,0.5c-4.7,0-8.2-1.5-10.6-4.4c-1.8-2.2-2.7-4.8-2.7-7.7
		c0-2.1,0.5-4.1,1.5-6c1.2-2.3,2.9-4,5-5.3c1.8-1,3.8-1.5,6.3-1.5c0.9,0,1.7,0.1,2.4,0.2s1.7,0.5,3,0.9c0.7,0.2,1.1,0.4,1.3,0.4
		s0.4-0.1,0.6-0.3s0.3-0.6,0.3-1.2H385.1z"/>
</g>
<path id="topleft" class="st1" d="M160.6,134.6l-56.7-89.3c0,0-3.7-10.5,5.7-15.6s51.1-16,51.1-16L0,13.9"/>
<path id="bottomleft" class="st1" d="M147.4,193.3c0,0-64.2,112.3-70.7,118.2c-6.5,6-83.1,23.8-83.1,23.8h162.9"/>
<path id="bottomright" class="st1" d="M221.4,187.3l86,118.3c0,0-14.5,8.3-38.7,21.3c-24.2,12.9-42.9,8.5-42.9,8.5h171.8"/>
<path id="topright" class="st1" d="M217.7,138.9c0,0,59.6-88.6,55.2-104.6c-4.5-16-15-25.2-15-25.2L376.3,0"/>
</svg>
