<svg xmlns="http://www.w3.org/2000/svg" width="66.721" height="71.238" viewBox="0 0 66.721 71.238">
  <g id="Group_21946" data-name="Group 21946" transform="translate(-1542.475 -231.447)">
    <path id="Rectangle_84" data-name="Rectangle 84" d="M0,0H57.9a0,0,0,0,1,0,0V33.632a2,2,0,0,1-2,2H2a2,2,0,0,1-2-2V0A0,0,0,0,1,0,0Z" transform="translate(1548.795 264.553)" fill="none" stroke="#fff" stroke-width="5"/>
    <path id="Rectangle_84-2" data-name="Rectangle 84" d="M2,0H55.9a2,2,0,0,1,2,2V14.7a0,0,0,0,1,0,0H0a0,0,0,0,1,0,0V2A2,2,0,0,1,2,0Z" transform="matrix(0.966, -0.259, 0.259, 0.966, 1545.537, 249.495)" fill="none" stroke="#fff" stroke-width="5"/>
    <g id="Polygon_10" data-name="Polygon 10" transform="translate(1592.221 272.348) rotate(90)" fill="#fff">
      <path d="M 16.17632484436035 19.76975631713867 L 3.86646580696106 19.76975631713867 L 10.02139282226563 6.092137813568115 L 16.17632484436035 19.76975631713867 Z" stroke="none"/>
      <path d="M 10.02139377593994 12.18429183959961 L 7.732934951782227 17.26975631713867 L 12.30985355377197 17.26975631713867 L 10.02139377593994 12.18429183959961 M 10.02139282226563 1.436853408813477 C 10.38890743255615 1.436853408813477 10.756422996521 1.633399963378906 10.93331241607666 2.026494979858398 L 19.40812301635742 20.85939598083496 C 19.70590209960938 21.5211353302002 19.22185325622559 22.26975631713867 18.49620246887207 22.26975631713867 L 1.54658317565918 22.26975631713867 C 0.8209323883056641 22.26975631713867 0.336883544921875 21.5211353302002 0.6346626281738281 20.85939598083496 L 9.10947322845459 2.026494979858398 C 9.286362648010254 1.633399963378906 9.653878211975098 1.436853408813477 10.02139282226563 1.436853408813477 Z" stroke="none" fill="#fff"/>
    </g>
  </g>
</svg>
