<svg xmlns="http://www.w3.org/2000/svg" width="67.772" height="64" viewBox="0 0 67.772 64">
  <g id="Group_22697" data-name="Group 22697" transform="translate(-1107.219 -659.5)">
    <g id="video" transform="translate(1107.219 659.5)">
      <path id="Path_6" data-name="Path 6" d="M54.213,25.431H12.233L52.555,13.75a1.231,1.231,0,0,0,.84-1.524l-2.11-7.284A6.888,6.888,0,0,0,44.7,0a6.817,6.817,0,0,0-1.9.27L4.943,11.237A6.864,6.864,0,0,0,.271,19.719l2.062,7.117V56.152A6.855,6.855,0,0,0,9.18,63H23.966a1.23,1.23,0,0,0,0-2.461H9.181a4.392,4.392,0,0,1-4.387-4.387V39.407H52.983V56.152A4.392,4.392,0,0,1,48.6,60.539H33.81a1.23,1.23,0,0,0,0,2.461H48.6a6.855,6.855,0,0,0,6.848-6.848V26.661a1.23,1.23,0,0,0-1.23-1.23Zm-21.7,11.515,5.228-9.055h6.8l-5.228,9.055Zm-9.642,0L28.1,27.892h6.8l-5.228,9.055Zm-9.641,0,5.228-9.055h6.8l-5.228,9.055Zm4.575-15.929L9.053,12.609l6.559-1.9a1.221,1.221,0,0,0,.161.19l8.755,8.409-6.559,1.9a1.225,1.225,0,0,0-.161-.19ZM34.3,5.533l8.755,8.409-6.559,1.9a1.2,1.2,0,0,0-.162-.19L27.575,7.243l6.559-1.9A1.22,1.22,0,0,0,34.3,5.533ZM25.035,8.216l8.755,8.408-6.559,1.9a1.2,1.2,0,0,0-.161-.19L18.314,9.926l6.559-1.9A1.3,1.3,0,0,0,25.035,8.216ZM43.487,2.634a4.351,4.351,0,0,1,1.21-.173,4.415,4.415,0,0,1,4.224,3.166l1.768,6.1-4.937,1.43a1.251,1.251,0,0,0-.162-.19L36.836,4.561ZM3.012,15.7a4.354,4.354,0,0,1,2.616-2.1l.723-.21a1.251,1.251,0,0,0,.161.19l8.755,8.409L4.4,25.137l-1.768-6.1A4.356,4.356,0,0,1,3.012,15.7ZM4.794,27.892H15.619l-5.228,9.055h-5.6Zm37.364,9.055,5.228-9.055h5.6v9.055Zm0,0" transform="translate(0 0)" fill="#141b26" fill-rule="evenodd"/>
      <path id="Path_7" data-name="Path 7" d="M209.338,351.863a1.23,1.23,0,0,0-.615-1.066l-10.81-6.241a1.23,1.23,0,0,0-1.846,1.066V358.1a1.23,1.23,0,0,0,1.846,1.065l10.81-6.241a1.23,1.23,0,0,0,.615-1.066Zm-10.81,4.11v-8.22l7.119,4.11Zm0,0" transform="translate(-171.941 -302.015)" fill="#141b26" fill-rule="evenodd"/>
      <path id="Path_8" data-name="Path 8" d="M226,492a1.23,1.23,0,1,0,1.23,1.23A1.233,1.233,0,0,0,226,492Zm0,0" transform="translate(-197.115 -431.461)" fill="#141b26" fill-rule="evenodd"/>
    </g>
    <g id="Group_22389" data-name="Group 22389" transform="translate(1148.574 697.084)">
      <circle id="Ellipse_243" data-name="Ellipse 243" cx="13.208" cy="13.208" r="13.208" transform="translate(0 0)" fill="#236feb"/>
      <path id="Path_3373" data-name="Path 3373" d="M1013.386,202.985l5.747,5.47,6.207-5.835,4.936-4.64" transform="translate(-1008.623 -189.548)" fill="none" stroke="#fff" stroke-width="3"/>
    </g>
  </g>
</svg>
