<svg xmlns="http://www.w3.org/2000/svg" width="87.322" height="65.676" viewBox="0 0 87.322 65.676">
  <g id="Group_21945" data-name="Group 21945" transform="translate(-153.265 -275.596)">
    <g id="Group_21393" data-name="Group 21393" transform="translate(153.265 275.596)">
      <g id="Dibujo" transform="translate(11.434 13.34)">
        <g id="Group_21391" data-name="Group 21391" transform="translate(0 0)">
          <path id="Path_13005" data-name="Path 13005" d="M24.817,48.412a18.311,18.311,0,0,1,31.47-18.535c.22-.007.437-.027.658-.027A22.135,22.135,0,0,1,78.286,45.792a13.012,13.012,0,0,1,2.21-.241,14.392,14.392,0,1,1,0,28.785h-47.1a14.374,14.374,0,0,1-8.577-25.923ZM41.245,27.234A13.068,13.068,0,0,0,29.517,46.1a14.324,14.324,0,0,1,3.877-.546,13.027,13.027,0,0,1,2.211.241A22.086,22.086,0,0,1,50.272,30.875,13.093,13.093,0,0,0,41.245,27.234ZM33.393,69.1H80.5a9.159,9.159,0,1,0,0-18.317A9.277,9.277,0,0,0,78.935,51v2.4a2.617,2.617,0,0,1-5.234,0V49.19a17.005,17.005,0,0,0-33.514.007V53.4a2.617,2.617,0,0,1-5.234,0V51a9.371,9.371,0,0,0-1.561-.213,9.159,9.159,0,1,0,0,18.317Z" transform="translate(-19.001 -22)" fill="#fff"/>
        </g>
      </g>
      <g id="Group_21392" data-name="Group 21392" transform="translate(0)">
        <path id="Path_13006" data-name="Path 13006" d="M60.617,20.467A2.618,2.618,0,0,1,58,17.85V12.617a2.617,2.617,0,0,1,5.234,0V17.85A2.617,2.617,0,0,1,60.617,20.467Z" transform="translate(-26.598 -10)" fill="#fff"/>
        <path id="Path_13007" data-name="Path 13007" d="M80.617,34H85.85a2.617,2.617,0,1,1,0,5.234H80.617a2.617,2.617,0,1,1,0-5.234Z" transform="translate(-78 -2.599)" fill="#fff"/>
        <path id="Path_13008" data-name="Path 13008" d="M78.46,25.963a2.606,2.606,0,0,1-1.85-.767l-3.7-3.7a2.616,2.616,0,0,1,3.7-3.7l3.7,3.7a2.617,2.617,0,0,1-1.85,4.467Z" transform="translate(-62.946 -7.832)" fill="#fff"/>
        <path id="Path_13009" data-name="Path 13009" d="M45.5,25.2a2.616,2.616,0,1,1-3.7-3.7l3.7-3.7a2.616,2.616,0,0,1,3.7,3.7Z" transform="translate(8.878 -7.832)" fill="#fff"/>
      </g>
    </g>
  </g>
</svg>
