<svg xmlns="http://www.w3.org/2000/svg" width="29.633" height="33.506" viewBox="0 0 29.633 33.506">
  <g id="Group_21504" data-name="Group 21504" transform="translate(-1590.388 -822.004)">
    <g id="Group_21416" data-name="Group 21416" transform="translate(1590.388 822.004)">
      <g id="Ellipse_3" data-name="Ellipse 3" transform="translate(4.018 0)" fill="none" stroke="#1e2e48" stroke-width="2">
        <ellipse cx="6.278" cy="6.278" rx="6.278" ry="6.278" stroke="none"/>
        <ellipse cx="6.278" cy="6.278" rx="5.278" ry="5.278" fill="none"/>
      </g>
      <g id="Subtraction_1" data-name="Subtraction 1" transform="translate(0 14.063)" fill="none">
        <path d="M20.591,13.56H0V10.3a10.3,10.3,0,1,1,20.591,0v3.263Z" stroke="none"/>
        <path d="M 18.59110069274902 11.56029987335205 L 18.59110069274902 10.29599952697754 C 18.59110069274902 5.721570014953613 14.86993026733398 1.99999988079071 10.29600048065186 1.99999988079071 C 5.721570491790771 1.99999988079071 2.000000238418579 5.721570014953613 2.000000238418579 10.29599952697754 L 2.000000238418579 11.56029987335205 L 18.59110069274902 11.56029987335205 M 20.59110069274902 13.56029987335205 L 20.59010124206543 13.56029987335205 L 3.463745201770507e-07 13.56029987335205 L 3.463745201770507e-07 10.29599952697754 C 3.463745201770507e-07 4.618770122528076 4.618770122528076 -6.332397362029951e-08 10.29600048065186 -6.332397362029951e-08 C 15.97274017333984 -6.332397362029951e-08 20.59110069274902 4.618770122528076 20.59110069274902 10.29599952697754 L 20.59110069274902 13.55929946899414 L 20.59110069274902 13.56029987335205 Z" stroke="none" fill="#1e2e48"/>
      </g>
    </g>
    <g id="Group_21419" data-name="Group 21419" transform="translate(1601.938 837.427)">
      <g id="Path_13017" data-name="Path 13017" transform="translate(0 0)" fill="#1e2e48">
        <path d="M 9.041298866271973 16.58300018310547 C 4.88300895690918 16.58300018310547 1.499998807907104 13.19990062713623 1.499998807907104 9.041501045227051 C 1.499998807907104 4.883100986480713 4.88300895690918 1.500001072883606 9.041298866271973 1.500001072883606 C 13.19958877563477 1.500001072883606 16.58259963989258 4.883100986480713 16.58259963989258 9.041501045227051 C 16.58259963989258 13.19990062713623 13.19958877563477 16.58300018310547 9.041298866271973 16.58300018310547 Z" stroke="none"/>
        <path d="M 9.041298866271973 3.000000953674316 C 5.710119247436523 3.000000953674316 2.999999046325684 5.710210800170898 2.999999046325684 9.041501045227051 C 2.999999046325684 12.3727912902832 5.710119247436523 15.08300113677979 9.041298866271973 15.08300113677979 C 12.37247848510742 15.08300113677979 15.08259868621826 12.3727912902832 15.08259868621826 9.041501045227051 C 15.08259868621826 5.710210800170898 12.37247848510742 3.000000953674316 9.041298866271973 3.000000953674316 M 9.041298866271973 1.9073486328125e-06 C 14.03466892242432 1.9073486328125e-06 18.08259963989258 4.04802131652832 18.08259963989258 9.041501045227051 C 18.08259963989258 14.03498077392578 14.03466892242432 18.08300018310547 9.041298866271973 18.08300018310547 C 4.047928810119629 18.08300018310547 -1.9073486328125e-06 14.03498077392578 -1.9073486328125e-06 9.041501045227051 C -1.9073486328125e-06 4.04802131652832 4.047928810119629 1.9073486328125e-06 9.041298866271973 1.9073486328125e-06 Z" stroke="none" fill="#1e2e48"/>
      </g>
      <g id="Group_21417" data-name="Group 21417" transform="translate(2.43 4.487)">
        <path id="Path_13440" data-name="Path 13440" d="M4.627.714,8.814,4.9,4.41,9.217" fill="none" stroke="#fff" stroke-width="2"/>
      </g>
    </g>
  </g>
</svg>
