<svg xmlns="http://www.w3.org/2000/svg" width="37" height="29" viewBox="0 0 37 29">
  <g id="Group_17558" data-name="Group 17558" transform="translate(-62.82 -724.939)">
    <g id="Group_5" data-name="Group 5" transform="translate(67.814 730.024)">
      <g id="Ellipse_3" data-name="Ellipse 3" transform="translate(2.631)" fill="none" stroke="#1e2e48" stroke-width="2">
        <circle cx="4.385" cy="4.385" r="4.385" stroke="none"/>
        <circle cx="4.385" cy="4.385" r="3.385" fill="none"/>
      </g>
      <g id="Subtraction_1" data-name="Subtraction 1" transform="translate(0 9.883)" fill="none">
        <path d="M14.082,9.008H0V6.775A6.975,6.975,0,0,1,1.451,2.494,7.091,7.091,0,0,1,5.118,0L7.042,1.8,8.964,0a7.09,7.09,0,0,1,3.667,2.493,6.975,6.975,0,0,1,1.451,4.282V9.007Z" stroke="none"/>
        <path d="M 12.08230018615723 7.008105278015137 L 12.08230018615723 6.775205135345459 C 12.08230018615723 5.655765056610107 11.72332000732422 4.596185207366943 11.04417037963867 3.710995197296143 C 10.60332202911377 3.136395931243896 10.04032611846924 2.662322759628296 9.406537055969238 2.323722124099731 L 8.406450271606445 3.257415294647217 L 7.041840076446533 4.531435489654541 L 5.677000045776367 3.257655382156372 L 4.676186561584473 2.323611259460449 C 4.042171478271484 2.662221908569336 3.478995323181152 3.136361122131348 3.038060188293457 3.711045265197754 C 2.358960151672363 4.596155166625977 2 5.655725479125977 2 6.775205135345459 L 2 7.008105278015137 L 12.08230018615723 7.008105278015137 M 14.08230018615723 9.008105278015137 L 14.08129978179932 9.008105278015137 L 9.307861148499796e-08 9.008105278015137 L 9.307861148499796e-08 6.775205135345459 C 9.307861148499796e-08 5.211615085601807 0.5018500685691833 3.73105525970459 1.451300144195557 2.493595361709595 C 2.370750188827515 1.295235276222229 3.673010110855103 0.4098152816295624 5.118200302124023 0.0004252676444593817 L 7.041600227355957 1.795505285263062 L 8.964389801025391 0.0003652676532510668 C 10.40989017486572 0.4099052548408508 11.71170043945313 1.295425295829773 12.63094997406006 2.493565320968628 C 13.58043003082275 3.731095314025879 14.08230018615723 5.211665153503418 14.08230018615723 6.775205135345459 L 14.08230018615723 9.007104873657227 L 14.08230018615723 9.008105278015137 Z" stroke="none" fill="#1e2e48"/>
      </g>
    </g>
    <g id="Rectangle_29" data-name="Rectangle 29" transform="translate(62.82 724.939)" fill="none" stroke="#1e2e48" stroke-width="2">
      <rect width="37" height="29" rx="4" stroke="none"/>
      <rect x="1" y="1" width="35" height="27" rx="3" fill="none"/>
    </g>
    <line id="Line_415" data-name="Line 415" x2="10.074" transform="translate(83.593 734.208)" fill="none" stroke="#1e2e48" stroke-width="2"/>
    <line id="Line_416" data-name="Line 416" x2="10.074" transform="translate(83.593 739.47)" fill="none" stroke="#1e2e48" stroke-width="2"/>
    <line id="Line_417" data-name="Line 417" x2="10.074" transform="translate(83.593 744.731)" fill="none" stroke="#1e2e48" stroke-width="2"/>
  </g>
</svg>
