<svg xmlns="http://www.w3.org/2000/svg" width="28.781" height="32.892" viewBox="0 0 28.781 32.892">
  <path id="Icon_metro-file-picture" data-name="Icon metro-file-picture" d="M29.168,30.709H8.61V26.6l6.167-10.279L23.226,26.6l5.942-4.112Zm0-13.362a3.084,3.084,0,1,1-3.084-3.084A3.084,3.084,0,0,1,29.168,17.346Zm2.756-8.06a29.126,29.126,0,0,0-2.8-3.2,29.133,29.133,0,0,0-3.2-2.8C24.265,2.069,23.461,1.928,23,1.928H7.068A2.573,2.573,0,0,0,4.5,4.5V32.251a2.573,2.573,0,0,0,2.57,2.57H30.71a2.573,2.573,0,0,0,2.57-2.57V12.207c0-.46-.14-1.264-1.355-2.921ZM27.67,7.537A28.037,28.037,0,0,1,30,10.151H25.056V5.206A28.008,28.008,0,0,1,27.67,7.537Zm3.553,24.713a.521.521,0,0,1-.514.514H7.068a.521.521,0,0,1-.514-.514V4.5a.521.521,0,0,1,.514-.514H23v7.2a1.028,1.028,0,0,0,1.028,1.028h7.2Z" transform="translate(-4.499 -1.928)" fill="#1e2e48"/>
</svg>
