<svg xmlns="http://www.w3.org/2000/svg" width="56.342" height="58.116" viewBox="0 0 56.342 58.116">
  <g id="idea" transform="translate(-7.815)">
    <g id="Group_22391" data-name="Group 22391" transform="translate(52.923 21.863)">
      <g id="Group_22390" data-name="Group 22390">
        <path id="Path_13420" data-name="Path 13420" d="M407.152,192.947a1.135,1.135,0,0,0-1.605,1.605l.053.052a1.135,1.135,0,0,0,1.552-1.657Z" transform="translate(-405.214 -192.615)"/>
      </g>
    </g>
    <g id="Group_22393" data-name="Group 22393" transform="translate(38.229 17.393)">
      <g id="Group_22392" data-name="Group 22392">
        <path id="Path_13421" data-name="Path 13421" d="M290.089,156.168a17.763,17.763,0,0,0-1.983-1.17,15.223,15.223,0,0,0-11.544-1.1,1.135,1.135,0,0,0,.673,2.168,13,13,0,0,1,9.85.96,15.807,15.807,0,0,1,1.728,1.02,1.135,1.135,0,1,0,1.275-1.878Z" transform="translate(-275.764 -153.23)"/>
      </g>
    </g>
    <g id="Group_22395" data-name="Group 22395" transform="translate(15.063 7.203)">
      <path id="Path_13437" data-name="Path 13437" d="M8.512,0a8.512,8.512,0,0,1,8.512,8.512c0,4.7-4.363,9.259-9.064,9.259S0,13.212,0,8.512A8.512,8.512,0,0,1,8.512,0Z" transform="translate(1.519 1.519)" fill="#236feb"/>
      <g id="Group_22394" data-name="Group 22394" transform="translate(0)">
        <path id="Path_13422" data-name="Path 13422" d="M119.486,91.275a14.6,14.6,0,0,1-1.25-3.127,10.735,10.735,0,0,0-1.368-10.2,21.266,21.266,0,0,0-16.569-8.79,20.312,20.312,0,0,0-9.358,2.274A9.717,9.717,0,1,0,76.315,81.466a1.9,1.9,0,0,1,1.1,1.686v6.642a2.3,2.3,0,0,0,2.3,2.3h.386a20.216,20.216,0,0,0,6.846,12.8,4.476,4.476,0,0,1-.31,2.206c-.351,1.222-.89,2.579-1.366,3.777-.318.8-.593,1.493-.759,2.017a1.135,1.135,0,0,0,1.082,1.479h16.2A1.842,1.842,0,0,0,103.513,113a11.1,11.1,0,0,0,.47-1.718c.135-.613.451-2.05.765-2.224a.231.231,0,0,1,.063,0,1.115,1.115,0,0,0,.176.014c1.7,0,3.083.077,4.307.145,3.588.2,5.754.319,7.653-2.417.966-1.392.857-3.422.741-5.571a20.269,20.269,0,0,1-.012-3.2,9.9,9.9,0,0,1,1.005-.749c1.07-.735,2.081-1.429,2.081-2.484A9.953,9.953,0,0,0,119.486,91.275ZM77.5,79.53a7.447,7.447,0,1,1,7.769,0,4.13,4.13,0,0,0-1.99,2.432H79.491A4.133,4.133,0,0,0,77.5,79.53Zm5.589,4.7v1.66H79.681v-1.66H83.09Zm-3.381,5.59a.033.033,0,0,1-.028-.028V88.163H83.09v1.631a.033.033,0,0,1-.028.028ZM117.4,95.407c-.977.671-1.821,1.25-1.945,2.127a20.206,20.206,0,0,0-.03,3.817c.086,1.594.183,3.4-.339,4.154-1.129,1.627-2.106,1.643-5.663,1.445-1.173-.065-2.63-.146-4.356-.148a2.42,2.42,0,0,0-2.533,1.5,10.546,10.546,0,0,0-.765,2.487,12.06,12.06,0,0,1-.337,1.31H87.221l.154-.387c1.635-4.117,2.671-7.137,1.094-8.5a17.963,17.963,0,0,1-6.083-11.121h.676a2.3,2.3,0,0,0,2.3-2.3v-6.64a1.9,1.9,0,0,1,1.1-1.688,9.651,9.651,0,0,0,4.615-7.514,18.034,18.034,0,0,1,9.229-2.529A19.116,19.116,0,0,1,114.981,79.2a8.519,8.519,0,0,1,1.127,8.151c-.445,1.072.215,2.559,1.329,4.9a20.484,20.484,0,0,1,1.021,2.364A10.725,10.725,0,0,1,117.4,95.407Z" transform="translate(-71.668 -63.458)"/>
      </g>
    </g>
    <g id="Group_22397" data-name="Group 22397" transform="translate(26.283 12.312)">
      <g id="Group_22396" data-name="Group 22396">
        <path id="Path_13423" data-name="Path 13423" d="M174.579,111.474a4.544,4.544,0,0,0-2.41-2.878,1.135,1.135,0,0,0-1.041,2.018,2.275,2.275,0,0,1,1.259,1.451,3.441,3.441,0,0,1-.315,2.345,1.135,1.135,0,1,0,1.914,1.22A5.69,5.69,0,0,0,174.579,111.474Z" transform="translate(-170.514 -108.47)"/>
      </g>
    </g>
    <g id="Group_22399" data-name="Group 22399" transform="translate(23.645)">
      <g id="Group_22398" data-name="Group 22398" transform="translate(0)">
        <path id="Path_13424" data-name="Path 13424" d="M148.414,0a1.135,1.135,0,0,0-1.135,1.135V4.371a1.135,1.135,0,1,0,2.27,0V1.135A1.135,1.135,0,0,0,148.414,0Z" transform="translate(-147.279)"/>
      </g>
    </g>
    <g id="Group_22401" data-name="Group 22401" transform="translate(7.815 15.83)">
      <g id="Group_22400" data-name="Group 22400" transform="translate(0)">
        <path id="Path_13425" data-name="Path 13425" d="M12.186,139.465H8.95a1.135,1.135,0,1,0,0,2.27h3.236a1.135,1.135,0,0,0,0-2.27Z" transform="translate(-7.815 -139.465)"/>
      </g>
    </g>
    <g id="Group_22403" data-name="Group 22403" transform="translate(15.73 2.121)">
      <g id="Group_22402" data-name="Group 22402">
        <path id="Path_13426" data-name="Path 13426" d="M81.281,22.053l-1.617-2.8A1.135,1.135,0,1,0,77.7,20.387l1.617,2.8a1.135,1.135,0,0,0,1.966-1.135Z" transform="translate(-77.545 -18.684)"/>
      </g>
    </g>
    <g id="Group_22405" data-name="Group 22405" transform="translate(9.935 7.915)">
      <g id="Group_22404" data-name="Group 22404" transform="translate(0)">
        <path id="Path_13427" data-name="Path 13427" d="M31,71.5l-2.8-1.617a1.135,1.135,0,1,0-1.135,1.966l2.8,1.617A1.135,1.135,0,1,0,31,71.5Z" transform="translate(-26.495 -69.735)"/>
      </g>
    </g>
    <g id="Group_22407" data-name="Group 22407" transform="translate(34.554 7.915)">
      <g id="Group_22406" data-name="Group 22406">
        <path id="Path_13428" data-name="Path 13428" d="M248.3,70.3a1.135,1.135,0,0,0-1.551-.415l-2.8,1.617a1.135,1.135,0,1,0,1.135,1.966l2.8-1.617A1.135,1.135,0,0,0,248.3,70.3Z" transform="translate(-243.382 -69.732)"/>
      </g>
    </g>
    <g id="Group_22409" data-name="Group 22409" transform="translate(9.935 22.128)">
      <g id="Group_22408" data-name="Group 22408" transform="translate(0)">
        <path id="Path_13429" data-name="Path 13429" d="M31.416,195.513a1.135,1.135,0,0,0-1.55-.416l-2.8,1.617a1.135,1.135,0,1,0,1.135,1.966l2.8-1.617A1.135,1.135,0,0,0,31.416,195.513Z" transform="translate(-26.495 -194.946)"/>
      </g>
    </g>
    <g id="Group_22411" data-name="Group 22411" transform="translate(15.73 27.143)">
      <g id="Group_22410" data-name="Group 22410" transform="translate(0)">
        <path id="Path_13430" data-name="Path 13430" d="M80.632,239.279a1.135,1.135,0,0,0-1.551.415l-1.384,2.4a1.135,1.135,0,1,0,1.966,1.135l1.384-2.4A1.135,1.135,0,0,0,80.632,239.279Z" transform="translate(-77.545 -239.127)"/>
      </g>
    </g>
    <g id="Group_22413" data-name="Group 22413" transform="translate(29.943 2.121)">
      <g id="Group_22412" data-name="Group 22412">
        <path id="Path_13431" data-name="Path 13431" d="M206.083,18.836a1.135,1.135,0,0,0-1.551.415l-1.617,2.8a1.135,1.135,0,1,0,1.966,1.135l1.617-2.8A1.135,1.135,0,0,0,206.083,18.836Z" transform="translate(-202.763 -18.683)"/>
      </g>
    </g>
  </g>
</svg>
