<?xml version="1.0" encoding="utf-8"?>
<!-- Generator: Adobe Illustrator 25.2.1, SVG Export Plug-In . SVG Version: 6.00 Build 0)  -->
<svg version="1.1" id="Layer_1" xmlns="http://www.w3.org/2000/svg" xmlns:xlink="http://www.w3.org/1999/xlink" x="0px" y="0px"
	 viewBox="0 0 56.3 58.1" style="enable-background:new 0 0 56.3 58.1;" xml:space="preserve">
<style type="text/css">
	.st0{fill:#FFFFFF;}
	.st1{fill:#236FEB;}
</style>
<g id="idea" transform="translate(-7.815)">
	<g id="Group_22391" transform="translate(52.923 21.863)">
		<g id="Group_22390">
			<path id="Path_13420" d="M1.9,0.3c-0.4-0.4-1.2-0.4-1.6,0c-0.4,0.4-0.4,1.1,0,1.6L0.4,2C0.8,2.4,1.6,2.4,2,1.9
				C2.4,1.5,2.4,0.8,1.9,0.3z"/>
		</g>
	</g>
	<g id="Group_22393" transform="translate(38.229 17.393)">
		<g id="Group_22392">
			<path id="Path_13421" d="M14.3,2.9c-0.6-0.4-1.3-0.8-2-1.2C8.8-0.1,4.6-0.5,0.8,0.7C0.2,0.9-0.1,1.5,0.1,2.1S0.9,3,1.5,2.8l0,0
				c3.3-1,6.8-0.6,9.9,1c0.6,0.3,1.2,0.6,1.7,1c0.5,0.4,1.2,0.2,1.6-0.3C15,4,14.9,3.3,14.3,2.9C14.3,2.9,14.3,2.9,14.3,2.9
				L14.3,2.9z"/>
		</g>
	</g>
	<g id="Group_22395" transform="translate(15.063 7.203)">
		<path class="st0" d="M49.1,31.3c0,1-1,1.8-2.1,2.5c-0.3,0.2-0.7,0.5-1,0.8c-0.1,1.1-0.1,2.1,0,3.2c0.1,2.2,0.2,4.2-0.7,5.6
			c-1.9,2.7-4.1,2.6-7.6,2.4c-1.2-0.1-2.6-0.1-4.3-0.1c-0.1,0-0.1,0-0.2,0h-0.1c-0.3,0.2-0.6,1.6-0.8,2.2c-0.1,0.6-0.3,1.2-0.5,1.7
			c-0.2,0.8-0.9,1.3-1.7,1.4H13.9c-0.1,0-0.2,0-0.3,0c-0.6-0.2-0.9-0.8-0.7-1.4c0.2-0.5,0.4-1.2,0.8-2c0.5-1.2,1-2.6,1.4-3.8
			c0.3-0.7,0.4-1.4,0.3-2.2c-3.8-3.3-6.2-7.8-6.8-12.8H8c-1.3,0-2.3-1-2.3-2.3v-6.6c0-0.7-0.4-1.4-1.1-1.7c-2.4-1.4-4-3.8-4.5-6.5
			C-0.8,6.2,2.7,1.1,8,0.2c5.3-1,10.3,2.5,11.3,7.8c2.9-1.5,6.1-2.3,9.4-2.3c6.6,0.2,12.7,3.4,16.6,8.8c2.2,3,2.7,6.8,1.4,10.2
			c0.3,1.1,0.7,2.1,1.2,3.1C48.5,28.9,48.9,30.1,49.1,31.3z"/>
		<path id="Path_13437" class="st1" d="M10,1.5c4.7,0,8.5,3.8,8.5,8.5c0,4.7-4.4,9.3-9.1,9.3s-8-4.6-8-9.3C1.5,5.3,5.3,1.5,10,1.5z"
			/>
		<g id="Group_22394" transform="translate(0)">
			<path id="Path_13422" d="M47.8,27.8c-0.5-1-1-2-1.2-3.1c1.3-3.4,0.8-7.3-1.4-10.2c-3.9-5.3-10-8.6-16.6-8.8
				c-3.3,0-6.5,0.8-9.4,2.3c-1-5.3-6-8.8-11.3-7.8c-5.3,1-8.8,6-7.8,11.3c0.5,2.7,2.1,5.1,4.5,6.5c0.7,0.3,1.1,1,1.1,1.7v6.6
				c0,1.3,1,2.3,2.3,2.3h0h0.4c0.6,5,3.1,9.5,6.8,12.8c0.1,0.7,0,1.5-0.3,2.2c-0.4,1.2-0.9,2.6-1.4,3.8c-0.3,0.8-0.6,1.5-0.8,2
				c-0.2,0.6,0.1,1.2,0.7,1.4c0.1,0,0.2,0.1,0.3,0.1h16.2c0.8,0,1.5-0.6,1.7-1.4c0.2-0.6,0.4-1.1,0.5-1.7c0.1-0.6,0.5-2.1,0.8-2.2
				c0,0,0,0,0.1,0c0.1,0,0.1,0,0.2,0c1.7,0,3.1,0.1,4.3,0.1c3.6,0.2,5.8,0.3,7.7-2.4c1-1.4,0.9-3.4,0.7-5.6c-0.1-1.1-0.1-2.1,0-3.2
				c0.3-0.3,0.7-0.5,1-0.7c1.1-0.7,2.1-1.4,2.1-2.5C48.9,30.1,48.5,28.9,47.8,27.8z M5.8,16.1C2.3,13.9,1.2,9.3,3.4,5.8
				c2.1-3.5,6.7-4.6,10.2-2.5s4.6,6.7,2.5,10.2c-0.6,1-1.5,1.9-2.5,2.5c-1,0.5-1.7,1.4-2,2.4H7.8C7.5,17.5,6.8,16.6,5.8,16.1z
				 M11.4,20.8v1.7H8v-1.7H11.4L11.4,20.8z M8,26.4C8,26.4,8,26.3,8,26.4l0-1.7h3.4v1.6c0,0,0,0,0,0L8,26.4z M45.7,31.9
				c-1,0.7-1.8,1.2-1.9,2.1c-0.1,1.3-0.1,2.5,0,3.8c0.1,1.6,0.2,3.4-0.3,4.2c-1.1,1.6-2.1,1.6-5.7,1.4c-1.2-0.1-2.6-0.1-4.4-0.1
				c-1.1-0.1-2.1,0.5-2.5,1.5c-0.4,0.8-0.6,1.6-0.8,2.5c-0.1,0.4-0.2,0.9-0.3,1.3H15.6l0.2-0.4c1.6-4.1,2.7-7.1,1.1-8.5
				c-3.3-2.8-5.5-6.8-6.1-11.1h0.7c1.3,0,2.3-1,2.3-2.3v0v-6.6c0-0.7,0.4-1.4,1.1-1.7c2.7-1.6,4.4-4.4,4.6-7.5
				c2.8-1.7,6-2.5,9.2-2.5c5.8,0.2,11.2,3.1,14.7,7.8c1.7,2.3,2.2,5.4,1.1,8.2c-0.4,1.1,0.2,2.6,1.3,4.9c0.4,0.8,0.7,1.6,1,2.4
				C46.5,31.4,46.1,31.7,45.7,31.9z"/>
		</g>
	</g>
	<g id="Group_22397" transform="translate(26.283 12.312)">
		<g id="Group_22396">
			<path id="Path_13423" d="M4.1,3C3.7,1.7,2.8,0.7,1.7,0.1C1.1-0.2,0.4,0.1,0.1,0.6c-0.3,0.6-0.1,1.2,0.5,1.5
				c0.6,0.3,1.1,0.8,1.3,1.5C2,4.4,1.9,5.2,1.6,5.9C1.2,6.5,1.4,7.2,1.9,7.5c0.5,0.3,1.2,0.2,1.6-0.3c0,0,0,0,0,0
				C4.2,5.9,4.4,4.4,4.1,3z"/>
		</g>
	</g>
	<g id="Group_22399" transform="translate(23.645)">
		<g id="Group_22398" transform="translate(0)">
			<path id="Path_13424" d="M1.1,0C0.5,0,0,0.5,0,1.1v3.2C0,5,0.5,5.5,1.1,5.5c0.6,0,1.1-0.5,1.1-1.1V1.1C2.3,0.5,1.8,0,1.1,0
				C1.1,0,1.1,0,1.1,0z"/>
		</g>
	</g>
	<g id="Group_22401" transform="translate(7.815 15.83)">
		<g id="Group_22400" transform="translate(0)">
			<path id="Path_13425" d="M4.4,0H1.1C0.5,0,0,0.5,0,1.1c0,0.6,0.5,1.1,1.1,1.1h3.2c0.6,0,1.1-0.5,1.1-1.1C5.5,0.5,5,0,4.4,0L4.4,0
				z"/>
		</g>
	</g>
	<g id="Group_22403" transform="translate(15.73 2.121)">
		<g id="Group_22402">
			<path id="Path_13426" d="M3.7,3.4L2.1,0.6C1.8,0,1.1-0.2,0.6,0.1C0,0.4-0.2,1.1,0.1,1.6c0,0,0,0.1,0,0.1l1.6,2.8
				c0.3,0.5,1,0.7,1.6,0.4C3.9,4.6,4.1,3.9,3.7,3.4L3.7,3.4z"/>
		</g>
	</g>
	<g id="Group_22405" transform="translate(9.935 7.915)">
		<g id="Group_22404" transform="translate(0)">
			<path id="Path_13427" d="M4.5,1.8L1.7,0.1C1.2-0.2,0.5,0,0.2,0.6C-0.2,1.1,0,1.8,0.6,2.1l0,0l2.8,1.6C3.9,4,4.6,3.9,4.9,3.3
				C5.2,2.8,5,2.1,4.5,1.8z"/>
		</g>
	</g>
	<g id="Group_22407" transform="translate(34.554 7.915)">
		<g id="Group_22406">
			<path id="Path_13428" d="M4.9,0.6C4.6,0,3.9-0.2,3.4,0.2c0,0,0,0,0,0L0.6,1.8C0,2.1-0.2,2.8,0.2,3.3c0.3,0.5,1,0.7,1.6,0.4
				l2.8-1.6C5,1.8,5.2,1.1,4.9,0.6C4.9,0.6,4.9,0.6,4.9,0.6z"/>
		</g>
	</g>
	<g id="Group_22409" transform="translate(9.935 22.128)">
		<g id="Group_22408" transform="translate(0)">
			<path id="Path_13429" d="M4.9,0.6C4.6,0,3.9-0.2,3.4,0.2L0.6,1.8C0,2.1-0.2,2.8,0.2,3.3c0.3,0.5,1,0.7,1.6,0.4l0,0l2.8-1.6
				C5,1.8,5.2,1.1,4.9,0.6z"/>
		</g>
	</g>
	<g id="Group_22411" transform="translate(15.73 27.143)">
		<g id="Group_22410" transform="translate(0)">
			<path id="Path_13430" d="M3.1,0.2C2.5-0.2,1.9,0,1.5,0.6c0,0,0,0,0,0L0.2,3C-0.2,3.5,0,4.2,0.6,4.5c0.5,0.3,1.2,0.1,1.6-0.4
				l1.4-2.4C3.8,1.2,3.6,0.5,3.1,0.2z"/>
		</g>
	</g>
	<g id="Group_22413" transform="translate(29.943 2.121)">
		<g id="Group_22412">
			<path id="Path_13431" d="M3.3,0.2C2.8-0.2,2.1,0,1.8,0.6c0,0,0,0,0,0L0.2,3.4C-0.2,3.9,0,4.6,0.6,4.9C1.1,5.2,1.8,5,2.1,4.5l0,0
				l1.6-2.8C4,1.2,3.9,0.5,3.3,0.2z"/>
		</g>
	</g>
</g>
</svg>
