<?xml version="1.0" encoding="utf-8"?>
<!-- Generator: Adobe Illustrator 25.2.1, SVG Export Plug-In . SVG Version: 6.00 Build 0)  -->
<svg version="1.1" id="Layer_1" xmlns="http://www.w3.org/2000/svg" xmlns:xlink="http://www.w3.org/1999/xlink" x="0px" y="0px"
	 viewBox="0 0 210.8 45" style="enable-background:new 0 0 210.8 45;" xml:space="preserve">
<style type="text/css">
	.st0{fill:#FFFFFF;}
</style>
<g>
	<path class="st0" d="M27.5,0.2L18,27.8L17.6,0.1C17,0,16.4,0,15.8,0C12.1,0,8.5,1.2,5.1,3.6C3.6,4.7,2.4,5.9,1.4,7.3
		C0.5,8.7,0,10.2,0,11.7c0,0.8,0.1,1.5,0.3,2.1c0.6,1.5,2.1,2.3,4.5,2.3c0-0.1,0-0.2-0.1-0.3c-0.3-0.6-0.5-1.5-0.5-2.7
		c0-2.5,0.6-4.6,1.8-6.3C7.1,5,8.8,3.8,10.9,3l0.7,30.7h6.5L30.6,0.2H27.5z"/>
	<path class="st0" d="M34.9,8.8c1,0,1.8-0.3,2.5-1c0.7-0.7,1.1-1.5,1.1-2.5s-0.4-1.8-1.1-2.5s-1.6-1.1-2.6-1.1c-1,0-1.8,0.4-2.5,1.1
		c-0.7,0.7-1,1.6-1,2.5s0.3,1.8,1,2.5S33.9,8.8,34.9,8.8z"/>
	<path class="st0" d="M57,14.3c0-0.6-0.3-1.3-0.8-2s-1.3-1-2.4-1c-1,0-2,0.3-2.9,0.9c-0.9,0.6-1.7,1.2-2.5,1.9l0.6-2.8h-6.5
		l-3.1,14.5c-0.3,1.1-0.9,2-1.6,2.8c-0.8,0.8-1.6,1.1-2.5,1.1c-1.2,0-1.8-0.5-1.8-1.5c0-0.5,0.1-1.1,0.2-1.6L37,11.2h-6.5l-3.1,14.4
		c-0.2,1.1-0.4,2.1-0.4,2.9c0,1.9,0.5,3.3,1.4,4.1c0.9,0.8,2,1.3,3.2,1.3c2.7,0,4.9-1,6.6-2.9l-0.6,2.6h6.5l3.6-17.1
		c0.6-0.6,1.1-1,1.6-1.3c0.5-0.3,1-0.4,1.6-0.4c0.3,0,0.5,0.1,0.6,0.3c0.1,0.2,0.2,0.5,0.2,0.9s0.2,0.8,0.5,1.1
		c0.3,0.4,0.8,0.6,1.6,0.6s1.5-0.3,2.1-1C56.7,16.2,57,15.3,57,14.3z"/>
	<path class="st0" d="M99.1,14.6c-0.8,1.3-1.7,2.1-2.7,2.3c-0.3-4-2.2-6.1-5.7-6.1c-2.8,0-5.3,1-7.3,3c-1.6,1.6-2.9,3.8-3.8,6.5
		c-0.4,1.2-0.7,2.3-0.9,3.5c-0.2,1.1-0.3,2.2-0.3,3.3c0,0.1,0,0.1,0,0.2c-0.5,1.2-1.1,2.1-1.7,2.7c-0.9,0.9-2,1.6-3.4,2.1L78,11.2
		h-6.5L71,13.6v-0.3c0-0.7-0.3-1.2-0.9-1.6S68.6,11,67.3,11c-2.5,0-4.6,0.8-6.3,2.5S58,17.4,57,20c-0.4,1.2-0.7,2.3-0.9,3.5
		c-0.2,1.2-0.3,2.4-0.3,3.5s0.2,2.2,0.5,3.2c0.9,2.6,2.8,3.8,5.5,3.8c2,0,3.8-0.8,5.4-2.5l-0.5,2.4c-4.9,1.6-7.3,3.8-7.3,6.5
		c0,1.6,0.5,2.7,1.5,3.4S63,45,64.7,45s3.1-0.5,4.3-1.4c1.7-1.3,2.9-3.4,3.4-6.2l0.7-3.3c0.7-0.2,1.4-0.4,2.2-0.8
		c1.5-0.7,2.8-1.8,3.8-3.3c0,0,0,0,0,0c1,2.5,3.2,3.8,6.7,3.8c2.9,0,5.3-1.3,7.3-3.8c2-2.6,3.1-6,3.4-10.2c1.5-0.8,2.8-2.3,3.9-4.4
		l0.8-1.6h-1.4L99.1,14.6z M65.9,37.5c-0.3,1.4-0.7,2.4-1.2,3c-0.5,0.7-0.9,1-1.3,1s-0.6,0-0.8-0.1c-0.6-0.3-0.9-0.7-0.9-1.3
		c0-1.5,1.5-2.8,4.4-3.8L65.9,37.5z M68.3,26.1c-0.3,1.1-0.8,1.9-1.5,2.6c-0.7,0.6-1.5,1-2.3,1c-0.5,0-0.9-0.2-1.2-0.5
		c-0.6-0.5-0.8-1.5-0.8-2.8c0-0.7,0-1.3,0.1-2c0.5-4,1.7-7.1,3.6-9.3c0.8-0.9,1.7-1.3,2.6-1.3c0.4,0,0.7,0.1,0.9,0.2
		c0.6,0.3,0.9,0.8,0.9,1.5L68.3,26.1z M92.6,20.5c-0.4,2.7-1,4.9-2,6.7s-2.1,2.7-3.4,2.7c-0.7,0-1.2-0.2-1.6-0.7
		c-0.3-0.5-0.5-1.5-0.5-3.2c0-0.9,0.2-2.1,0.5-3.6c0.7-3.2,1.7-5.7,3.1-7.4c0.7-0.9,1.4-1.4,2.1-1.4c0.7,0,1.2,0.2,1.4,0.6
		c0.2,0.4,0.4,1,0.5,2c-0.8,0.4-1.3,1.2-1.3,2.3C91.5,19.5,91.9,20.2,92.6,20.5z"/>
	<path class="st0" d="M133.4,0.1c-1.6,0.6-3.1,0.9-4.7,0.9c-1.6,0-2.8-0.1-3.7-0.2c-0.9-0.1-2-0.3-3.3-0.5c-1.3-0.2-2.9-0.3-5.1-0.3
		c-5.2,0-9.1,1.2-11.8,3.6c-1.2,1.1-2.1,2.3-2.7,3.7s-0.8,2.7-0.8,3.8s0.1,2,0.3,2.6c0.6,1.5,2.1,2.3,4.5,2.3c0-0.1,0-0.2-0.1-0.3
		c-0.3-0.6-0.5-1.5-0.5-2.7c0-3.4,0.8-5.8,2.4-7.3c1.4-1.2,3.4-1.8,6-1.8h0.5l-6.4,29.8h6.5l6.2-28.9c3.3,0.7,5.6,1,7,1
		C131.4,5.8,133.3,3.9,133.4,0.1z"/>
	<path class="st0" d="M208.1,11.2l1.5-7.1L203,5l-1.4,6.2h-1.5l-0.4,1.8h1.5l-2.7,12.6h-0.2c-0.5,1.4-1.1,2.4-1.6,3s-1.3,1-2.3,1
		c-1.1,0-1.6-0.6-1.6-1.9c0-0.6,0.1-1.4,0.4-2.3l1.1-4.4c0.5-2,0.7-3.7,0.7-5.3s-0.5-2.7-1.4-3.5s-2.1-1.2-3.6-1.2
		c-2,0-3.8,0.8-5.3,2.5l0.5-2.3h-6.5l-3.1,14.4c-1.3,1.5-2.6,2.6-3.7,3.4c-1.2,0.8-2.6,1.2-4.4,1.2c-1,0-1.7-0.2-2.3-0.7
		c-0.5-0.5-0.8-1.5-0.8-3c0-0.4,0-1,0.1-1.8c2.8-0.2,5.2-1.2,7.3-3c2.1-1.8,3.1-4,3.1-6.5c0-1.3-0.4-2.3-1.1-3.1
		c-0.7-0.8-2.2-1.2-4.2-1.2c-1.3,0-2.5,0.3-3.7,0.8c-2.3,1-4.1,2.8-5.4,5.2c-1.7,3.2-2.6,6.5-2.6,10c0,0.1,0,0.2,0,0.2
		c-0.3,0.5-0.6,1-1,1.4c-0.8,0.8-1.6,1.1-2.5,1.1c-1.2,0-1.8-0.5-1.8-1.5c0-0.5,0.1-1.1,0.2-1.6l5.2-24.3l-6.7,0.9l-4.8,22.5h0
		c-0.8,2.8-2.1,4.2-3.6,4.2c-1.2,0-1.8-0.6-1.8-1.9c0-0.5,0.1-0.9,0.2-1.5l3.2-15.3h-6.5l-0.5,2.4v-0.3c0-0.7-0.3-1.2-0.9-1.6
		c-0.6-0.4-1.5-0.6-2.8-0.6c-2.5,0-4.6,0.8-6.3,2.5s-3.1,3.8-4,6.4c-0.4,1.2-0.7,2.3-0.9,3.5c-0.2,1.2-0.3,2.4-0.3,3.5
		s0.2,2.2,0.5,3.2c0.9,2.6,2.7,3.8,5.3,3.8c2.6,0,4.9-1.4,6.9-4.1c0.3,2.8,1.8,4.1,4.4,4.1c2.8,0,5.1-1.3,6.9-3.9
		c0.2,1.1,0.6,2,1.3,2.6c0.9,0.8,2,1.3,3.2,1.3c3.2,0,5.7-1.4,7.6-4.1c0.3,1,0.8,1.8,1.5,2.4c1.3,1.1,3,1.7,5.1,1.7
		c3.9,0,7.3-1.8,10.2-5.2l-1.1,5h6.5l3.1-14.4c0.2-0.6,0.4-1.1,0.6-1.6c0.8-1.7,1.8-2.6,2.9-2.6s1.6,0.8,1.6,2.3c0,1-0.3,2.9-1,5.6
		s-1,4.7-1,5.9c0,2.3,0.9,3.8,2.8,4.6c0.7,0.3,1.4,0.4,2,0.4c0.7,0,1.3,0,1.7-0.1c1.9-0.3,3.6-1.5,5-3.7c0.1,0.8,0.5,1.6,1,2.4
		c0.7,1,1.9,1.5,3.4,1.5c0.4,0,0.8,0,1.2-0.1c1.5-0.4,2.7-1.8,3.6-4.3c-0.3,0.1-0.7,0.1-1.3,0.1s-0.9-0.1-1.2-0.5
		c-0.2-0.3-0.3-0.7-0.3-1.2s0.1-1,0.2-1.6l2.9-13.5h2.7l0.4-1.8H208.1z M167.1,16.1c1-1.9,2.1-2.9,3.2-2.9c0.7,0,1.1,0.5,1.1,1.6
		c0,2-0.7,3.7-2,5.2c-1.3,1.5-2.8,2.3-4.6,2.4C165.4,20.2,166.1,18.1,167.1,16.1z M134.8,25.7c-0.3,1.2-0.8,2.2-1.5,2.9
		s-1.5,1.1-2.4,1.1c-0.5,0-0.9-0.2-1.2-0.5c-0.6-0.5-0.8-1.5-0.8-2.8c0-0.7,0-1.3,0.1-2c0.5-4,1.7-7.1,3.6-9.3
		c0.8-0.9,1.6-1.3,2.4-1.3c0.8,0,1.4,0.2,1.6,0.6c0.3,0.4,0.4,0.8,0.4,1.1L134.8,25.7z"/>
</g>
</svg>
