<?xml version="1.0" encoding="utf-8"?>
<!-- Generator: Adobe Illustrator 25.2.1, SVG Export Plug-In . SVG Version: 6.00 Build 0)  -->
<svg version="1.1" id="Layer_14" xmlns="http://www.w3.org/2000/svg" xmlns:xlink="http://www.w3.org/1999/xlink" x="0px" y="0px"
	 viewBox="0 0 210.8 45" style="enable-background:new 0 0 210.8 45;" xml:space="preserve">
<style type="text/css">
	.st0{fill:#236FEB;}
</style>
<g id="Layer_2">
	<g id="Layer_3">
	</g>
</g>
<g>
	<path class="st0" d="M12.3,36L11.6,7c-2,0.7-3.5,1.9-4.7,3.5S5.2,14,5.2,16.4c0,1.1,0.2,2,0.5,2.6c0.1,0.1,0.1,0.2,0.1,0.3
		c-2.3,0-3.7-0.7-4.3-2.2c-0.2-0.5-0.3-1.2-0.3-2c0-1.4,0.4-2.8,1.3-4.1s2-2.5,3.5-3.5c3.2-2.3,6.6-3.4,10.1-3.4
		c0.6,0,1.1,0,1.7,0.1l0.4,26.1l8.9-26h3L18.4,36H12.3z"/>
	<path class="st0" d="M40.3,28.3c-1.8,5.2-4.8,7.9-9.1,7.9c-1.1,0-2.1-0.4-3-1.2c-0.9-0.8-1.3-2.1-1.3-3.9c0-0.8,0.1-1.7,0.3-2.8
		L30,14.7l6.1,0l-3,14.5c-0.1,0.5-0.2,1-0.2,1.5c0,1,0.6,1.4,1.7,1.4c0.8,0,1.6-0.4,2.3-1.1s1.2-1.6,1.5-2.7L40.3,28.3z M37.6,9.1
		c0,0.9-0.3,1.7-1,2.4c-0.7,0.6-1.5,1-2.4,1c-0.9,0-1.7-0.3-2.4-1c-0.7-0.6-1-1.4-1-2.4c0-0.9,0.3-1.7,1-2.4s1.4-1,2.4-1
		s1.8,0.3,2.4,1S37.6,8.1,37.6,9.1z"/>
	<path class="st0" d="M36.9,36l4.5-21.2h6.1L47,17.4c0.7-0.6,1.5-1.2,2.3-1.8c0.9-0.6,1.8-0.9,2.8-0.9s1.7,0.3,2.2,1
		c0.5,0.7,0.7,1.3,0.7,1.9c0,1-0.3,1.9-0.8,2.5c-0.5,0.6-1.2,1-2,1c-0.8,0-1.3-0.2-1.5-0.5s-0.4-0.7-0.5-1.1
		c-0.1-0.4-0.1-0.7-0.2-0.9c-0.1-0.2-0.3-0.3-0.6-0.3c-0.6,0-1.1,0.1-1.5,0.4s-0.9,0.7-1.5,1.2L43,36H36.9z"/>
	<path class="st0" d="M64.7,33.9c-1.5,1.5-3.2,2.3-5.1,2.3c-2.6,0-4.3-1.2-5.2-3.6c-0.3-0.9-0.5-1.9-0.5-3c0-1.1,0.1-2.2,0.3-3.3
		c0.2-1.1,0.5-2.2,0.9-3.3c0.9-2.4,2.2-4.4,3.8-6c1.6-1.6,3.6-2.4,6-2.4c1.2,0,2.1,0.2,2.6,0.6s0.8,0.9,0.8,1.5v0.2l0.5-2.2h6.1
		l-4.2,19.7c1.3-0.4,2.3-1.1,3.2-2c0.8-0.9,1.6-2.3,2.2-4.1h1.8c-1.1,3.7-2.9,6.1-5.5,7.2c-0.7,0.3-1.4,0.6-2,0.7l-0.6,3.1
		c-0.5,2.7-1.6,4.7-3.2,5.9c-1.2,0.9-2.6,1.3-4.1,1.3c-1.5,0-2.8-0.3-3.7-1c-0.9-0.7-1.4-1.8-1.4-3.3c0-2.6,2.3-4.6,6.9-6.2
		L64.7,33.9z M63.7,38.3c-2.8,1-4.1,2.2-4.1,3.6c0,0.6,0.3,1,0.8,1.3c0.2,0.1,0.4,0.1,0.8,0.1c0.3,0,0.7-0.3,1.2-0.9
		c0.5-0.6,0.8-1.6,1.1-2.9L63.7,38.3z M67.9,18.7c0-0.6-0.3-1.1-0.9-1.4c-0.2-0.1-0.5-0.2-0.9-0.2c-0.9,0-1.7,0.4-2.5,1.3
		c-1.8,2-2.9,5-3.4,8.8c-0.1,0.6-0.1,1.2-0.1,1.8c0,1.3,0.3,2.1,0.8,2.6c0.3,0.3,0.7,0.5,1.1,0.5c0.8,0,1.5-0.3,2.2-0.9
		s1.2-1.4,1.4-2.4L67.9,18.7z"/>
	<path class="st0" d="M96.7,17.2L96,18.7c-1,2-2.2,3.4-3.7,4.2c-0.3,4-1.3,7.2-3.2,9.7c-1.9,2.4-4.2,3.6-6.9,3.6
		c-3.3,0-5.4-1.2-6.3-3.6c-0.3-0.8-0.5-1.8-0.5-2.8s0.1-2.1,0.2-3.1c0.2-1.1,0.4-2.1,0.8-3.3c0.8-2.6,2-4.6,3.6-6.2
		c1.9-1.9,4.2-2.8,6.9-2.8c3.3,0,5.1,1.9,5.4,5.7c0.9-0.2,1.8-0.9,2.6-2.2l0.5-0.8H96.7z M88.7,23.5c-0.7-0.3-1-0.9-1-2
		c0-1.1,0.4-1.8,1.2-2.1c-0.1-0.9-0.2-1.5-0.5-1.9s-0.7-0.5-1.3-0.5s-1.3,0.4-2,1.3c-1.3,1.7-2.3,4-2.9,7c-0.3,1.4-0.4,2.5-0.4,3.4
		c0,1.5,0.2,2.5,0.5,3c0.3,0.5,0.8,0.7,1.5,0.7c1.2,0,2.3-0.8,3.2-2.5C87.8,28.1,88.4,26,88.7,23.5z"/>
	<path class="st0" d="M124.6,8.7L118.7,36h-6.1l6-28.1h-0.5c-2.5,0-4.4,0.6-5.7,1.7c-1.5,1.4-2.3,3.7-2.3,6.8c0,1.1,0.2,2,0.5,2.6
		c0.1,0.1,0.1,0.2,0.1,0.3c-2.3,0-3.7-0.7-4.3-2.2c-0.2-0.5-0.3-1.3-0.3-2.4s0.3-2.3,0.8-3.6s1.4-2.5,2.5-3.5
		c2.6-2.3,6.3-3.4,11.2-3.4c2,0,3.6,0.1,4.8,0.3c1.2,0.2,2.2,0.4,3.1,0.5c0.9,0.1,2.1,0.2,3.5,0.2c1.5,0,2.9-0.3,4.4-0.9
		c-0.1,3.6-1.9,5.4-5.3,5.4C129.9,9.6,127.7,9.3,124.6,8.7z"/>
	<path class="st0" d="M150.5,28.4c-1.8,5.2-4.6,7.9-8.5,7.9c-2.5,0-3.9-1.3-4.2-3.9c-1.9,2.6-4,3.9-6.5,3.9s-4.1-1.2-5-3.6
		c-0.3-0.9-0.5-1.9-0.5-3c0-1.1,0.1-2.2,0.3-3.3c0.2-1.1,0.5-2.2,0.9-3.3c0.9-2.4,2.2-4.4,3.8-6c1.6-1.6,3.6-2.4,6-2.4
		c1.2,0,2.1,0.2,2.6,0.6s0.8,0.9,0.8,1.5V17l0.5-2.3h6.1l-3,14.4c-0.1,0.5-0.2,0.9-0.2,1.4c0,1.2,0.6,1.8,1.7,1.8
		c1.5,0,2.7-1.3,3.4-4H150.5z M139.8,18.8c0-0.3-0.1-0.6-0.4-1c-0.2-0.4-0.8-0.6-1.5-0.6c-0.8,0-1.6,0.4-2.3,1.3
		c-1.8,2-2.9,5-3.4,8.8c-0.1,0.6-0.1,1.2-0.1,1.8c0,1.3,0.3,2.1,0.8,2.6c0.3,0.3,0.7,0.5,1.1,0.5c0.8,0,1.6-0.3,2.3-1
		c0.7-0.7,1.2-1.6,1.4-2.7L139.8,18.8z"/>
	<path class="st0" d="M161.8,28.4c-1.8,5.2-4.9,7.9-9.1,7.9c-1.1,0-2.1-0.4-3-1.2c-0.9-0.8-1.3-2.1-1.3-3.9c0-0.8,0.1-1.7,0.3-2.8
		l4.5-21.3l6.3-0.9l-4.9,22.9c-0.1,0.5-0.2,1-0.2,1.5c0,1,0.6,1.4,1.7,1.4c0.8,0,1.6-0.4,2.3-1.1s1.2-1.6,1.5-2.7H161.8z"/>
	<path class="st0" d="M177.8,28.4c-3.2,5.2-7.1,7.9-11.7,7.9c-2,0-3.6-0.5-4.8-1.6c-1.2-1-1.8-2.8-1.8-5.2c0-3.2,0.8-6.4,2.5-9.4
		c1.3-2.3,3-4,5.1-4.9c1.1-0.5,2.3-0.8,3.5-0.8c2,0,3.3,0.4,4,1.1s1.1,1.7,1.1,3c0,2.4-1,4.5-2.9,6.2c-2,1.7-4.2,2.6-6.8,2.8
		c-0.1,0.8-0.1,1.4-0.1,1.7c0,1.5,0.3,2.4,0.8,2.9s1.2,0.7,2.2,0.7c1.6,0,3-0.4,4.1-1.1c1.1-0.7,2.3-1.8,3.5-3.2H177.8z M172.4,18.1
		c0-1-0.4-1.5-1.1-1.5c-1,0-2,0.9-3,2.7s-1.7,3.8-2.1,6c1.6-0.1,3.1-0.9,4.3-2.3C171.7,21.7,172.4,20,172.4,18.1z"/>
	<path class="st0" d="M192.5,30.3c0,1.2,0.5,1.8,1.6,1.8c1,0,1.7-0.3,2.2-0.9s1-1.6,1.5-2.8h1.8c-1.6,4.8-3.9,7.4-6.7,7.8
		c-0.4,0.1-1,0.1-1.6,0.1s-1.3-0.1-1.9-0.4c-1.8-0.7-2.7-2.2-2.7-4.4c0-1.2,0.3-3,1-5.6s1-4.3,1-5.3c0-1.5-0.5-2.2-1.5-2.2
		c-1,0-1.9,0.8-2.7,2.4c-0.2,0.5-0.4,1-0.6,1.5L180.9,36h-6.1l4.5-21.2h6.1l-0.5,2.2c1.4-1.6,3-2.4,5-2.4c1.4,0,2.5,0.4,3.4,1.1
		c0.9,0.7,1.3,1.9,1.3,3.3s-0.2,3.1-0.7,5l-1,4.1C192.6,29,192.5,29.7,192.5,30.3z"/>
	<path class="st0" d="M200.5,16.4h-1.4l0.4-1.7h1.4l1.3-5.9l6.3-0.9l-1.5,6.7h2.6l-0.3,1.7h-2.6l-2.7,12.7c-0.1,0.5-0.2,1-0.2,1.5
		s0.1,0.8,0.3,1.1s0.6,0.4,1.1,0.4c0.5,0,0.9,0,1.2-0.1c-0.8,2.4-1.9,3.7-3.4,4c-0.4,0.1-0.8,0.1-1.1,0.1c-1.5,0-2.6-0.5-3.3-1.4
		c-0.7-0.9-1-1.9-1-2.9s0.1-2,0.2-2.7L200.5,16.4z"/>
</g>
</svg>
