<?xml version="1.0" encoding="utf-8"?>
<!-- Generator: Adobe Illustrator 25.2.1, SVG Export Plug-In . SVG Version: 6.00 Build 0)  -->
<svg version="1.1" id="Layer_1" xmlns="http://www.w3.org/2000/svg" xmlns:xlink="http://www.w3.org/1999/xlink" x="0px" y="0px"
	 viewBox="0 0 217 51.4" style="enable-background:new 0 0 217 51.4;" xml:space="preserve">
<style type="text/css">
	.st0{fill:#446DB5;}
</style>
<g>
	<path class="st0" d="M28.6,6.8l-8.9,26L19.2,6.7c-0.6-0.1-1.1-0.1-1.7-0.1C14,6.6,10.6,7.7,7.4,10C6,11,4.9,12.2,4,13.5
		c-0.9,1.3-1.3,2.7-1.3,4.1c0,0.8,0.1,1.4,0.3,2c0.6,1.5,2,2.2,4.3,2.2c0-0.1,0-0.2-0.1-0.3c-0.3-0.6-0.5-1.4-0.5-2.6
		c0-2.4,0.6-4.3,1.7-5.9c1.1-1.6,2.7-2.8,4.7-3.5l0.7,29h6.1L31.5,6.8H28.6z"/>
	<path class="st0" d="M35.6,14.9c0.9,0,1.7-0.3,2.4-1c0.7-0.6,1-1.4,1-2.4c0-0.9-0.3-1.7-1-2.4s-1.5-1-2.4-1c-0.9,0-1.7,0.3-2.4,1
		c-0.6,0.7-1,1.5-1,2.4s0.3,1.7,1,2.4C33.8,14.6,34.6,14.9,35.6,14.9z"/>
	<path class="st0" d="M56.4,20.1c0-0.6-0.2-1.2-0.7-1.9c-0.5-0.7-1.2-1-2.2-1s-1.9,0.3-2.8,0.9c-0.9,0.6-1.6,1.2-2.3,1.8l0.5-2.6
		h-6.1l-2.9,13.9c-0.3,1-0.8,1.8-1.4,2.4c-0.7,0.7-1.5,1.1-2.3,1.1c-1.1,0-1.7-0.5-1.7-1.4c0-0.5,0.1-1,0.2-1.5l3-14.5l-6.1,0
		l-2.8,13.6c-0.2,1.1-0.3,2-0.3,2.8c0,1.8,0.4,3.1,1.3,3.9c0.9,0.8,1.9,1.2,3,1.2c2.5,0,4.5-0.9,6.2-2.7l-0.5,2.4h6.1l3.4-16.1
		c0.6-0.5,1.1-0.9,1.5-1.2c0.4-0.3,1-0.4,1.5-0.4c0.3,0,0.5,0.1,0.6,0.3c0.1,0.2,0.2,0.5,0.2,0.9c0.1,0.4,0.2,0.7,0.5,1.1
		c0.2,0.4,0.8,0.5,1.5,0.5s1.4-0.3,2-1C56.1,21.9,56.4,21.1,56.4,20.1z"/>
	<path class="st0" d="M96.2,20.4c-0.8,1.2-1.6,2-2.6,2.2c-0.2-3.8-2-5.7-5.4-5.7c-2.7,0-5,0.9-6.9,2.8c-1.5,1.5-2.7,3.6-3.6,6.2
		C77.5,27,77.2,28,77,29.1s-0.2,2.1-0.2,3.1c0,0.1,0,0.1,0,0.2c-0.5,1.1-1,2-1.6,2.6c-0.8,0.9-1.9,1.5-3.2,2l4.2-19.7h-6.1l-0.5,2.2
		v-0.2c0-0.6-0.3-1.1-0.8-1.5c-0.5-0.4-1.4-0.6-2.6-0.6c-2.3,0-4.3,0.8-6,2.4c-1.6,1.6-2.9,3.6-3.8,6c-0.4,1.1-0.7,2.2-0.9,3.3
		c-0.2,1.1-0.3,2.2-0.3,3.3c0,1.1,0.2,2.1,0.5,3c0.9,2.4,2.6,3.6,5.2,3.6c1.9,0,3.6-0.8,5.1-2.3l-0.5,2.2c-4.6,1.5-6.9,3.6-6.9,6.2
		c0,1.5,0.5,2.6,1.4,3.3c0.9,0.7,2.2,1,3.7,1s2.9-0.4,4.1-1.3c1.6-1.2,2.7-3.2,3.2-5.9l0.6-3.1c0.7-0.2,1.3-0.4,2-0.7
		c1.4-0.6,2.6-1.7,3.6-3.1c0,0,0,0,0,0c0.9,2.4,3,3.6,6.3,3.6c2.7,0,5-1.2,6.9-3.6c1.9-2.4,2.9-5.6,3.2-9.7c1.4-0.8,2.6-2.2,3.7-4.2
		l0.7-1.5h-1.3L96.2,20.4z M64.8,42c-0.3,1.3-0.6,2.2-1.1,2.9s-0.9,0.9-1.2,0.9s-0.6,0-0.8-0.1c-0.5-0.3-0.8-0.7-0.8-1.3
		c0-1.4,1.4-2.6,4.1-3.6L64.8,42z M67.1,31.3c-0.3,1-0.8,1.8-1.4,2.4c-0.7,0.6-1.4,0.9-2.2,0.9c-0.4,0-0.8-0.2-1.1-0.5
		c-0.5-0.5-0.8-1.4-0.8-2.6c0-0.7,0-1.3,0.1-1.8c0.5-3.8,1.6-6.7,3.4-8.8c0.7-0.8,1.6-1.3,2.5-1.3c0.3,0,0.6,0.1,0.9,0.2
		c0.6,0.3,0.9,0.8,0.9,1.4L67.1,31.3z M90.1,26c-0.3,2.5-1,4.6-1.9,6.3c-0.9,1.7-2,2.5-3.2,2.5c-0.7,0-1.2-0.2-1.5-0.7
		c-0.3-0.5-0.5-1.5-0.5-3c0-0.9,0.1-2,0.4-3.4c0.7-3,1.6-5.3,2.9-7c0.7-0.9,1.3-1.3,2-1.3c0.7,0,1.1,0.2,1.3,0.5
		c0.2,0.4,0.4,1,0.5,1.9c-0.8,0.4-1.2,1.1-1.2,2.1S89.4,25.7,90.1,26z"/>
	<path class="st0" d="M137.8,6.7c-1.5,0.6-2.9,0.9-4.4,0.9s-2.7-0.1-3.5-0.2C129,7.3,128,7.2,126.8,7c-1.2-0.2-2.8-0.3-4.8-0.3
		c-4.9,0-8.6,1.1-11.2,3.4c-1.2,1-2,2.2-2.5,3.5c-0.5,1.3-0.8,2.5-0.8,3.6c0,1.1,0.1,1.9,0.3,2.4c0.6,1.5,2,2.2,4.3,2.2
		c0-0.1,0-0.2-0.1-0.3c-0.3-0.6-0.5-1.4-0.5-2.6c0-3.2,0.8-5.5,2.3-6.8c1.3-1.2,3.2-1.7,5.7-1.7h0.5l-6,28.1h6.1l5.9-27.3
		c3.1,0.6,5.3,0.9,6.6,0.9C135.9,12.1,137.7,10.3,137.8,6.7z"/>
	<path class="st0" d="M208.3,17.2l1.5-6.7l-6.3,0.9l-1.3,5.9h-1.4l-0.4,1.7h1.4l-2.5,11.9h-0.2c-0.5,1.3-1,2.2-1.5,2.8
		c-0.5,0.6-1.2,0.9-2.2,0.9c-1,0-1.6-0.6-1.6-1.8c0-0.6,0.1-1.3,0.3-2.2l1-4.1c0.5-1.9,0.7-3.5,0.7-5c0-1.5-0.4-2.6-1.3-3.3
		c-0.9-0.7-2-1.1-3.4-1.1c-1.9,0-3.6,0.8-5,2.4l0.5-2.2h-6.1l-2.9,13.6c-1.2,1.4-2.4,2.5-3.5,3.2c-1.1,0.7-2.5,1.1-4.1,1.1
		c-0.9,0-1.6-0.2-2.2-0.7c-0.5-0.5-0.8-1.4-0.8-2.9c0-0.3,0-0.9,0.1-1.7c2.6-0.2,4.9-1.1,6.8-2.8c2-1.7,2.9-3.8,2.9-6.2
		c0-1.2-0.4-2.2-1.1-3c-0.7-0.7-2-1.1-4-1.1c-1.2,0-2.4,0.3-3.5,0.8c-2.2,1-3.9,2.6-5.1,4.9c-1.6,3-2.5,6.2-2.5,9.4
		c0,0.1,0,0.2,0,0.2c-0.3,0.5-0.6,0.9-1,1.3c-0.7,0.7-1.5,1.1-2.3,1.1c-1.1,0-1.7-0.5-1.7-1.4c0-0.5,0.1-1,0.2-1.5l4.9-22.9
		l-6.3,0.9l-4.5,21.3c-0.8,2.7-1.9,4-3.4,4c-1.2,0-1.7-0.6-1.7-1.8c0-0.4,0.1-0.9,0.2-1.4l3-14.4H142l-0.5,2.3v-0.3
		c0-0.6-0.3-1.1-0.8-1.5c-0.5-0.4-1.4-0.6-2.6-0.6c-2.3,0-4.3,0.8-6,2.4c-1.6,1.6-2.9,3.6-3.8,6c-0.4,1.1-0.7,2.2-0.9,3.3
		c-0.2,1.1-0.3,2.2-0.3,3.3c0,1.1,0.2,2.1,0.5,3c0.9,2.4,2.6,3.6,5,3.6c2.5,0,4.6-1.3,6.5-3.9c0.3,2.6,1.7,3.9,4.2,3.9
		c2.7,0,4.8-1.2,6.5-3.7c0.2,1.1,0.6,1.9,1.2,2.5c0.9,0.8,1.9,1.2,3,1.2c3,0,5.4-1.3,7.2-3.9c0.3,1,0.8,1.7,1.4,2.3
		c1.2,1,2.8,1.6,4.8,1.6c3.6,0,6.8-1.7,9.6-4.9l-1,4.7h6.1l2.9-13.6c0.2-0.5,0.3-1,0.6-1.5c0.8-1.6,1.7-2.4,2.7-2.4
		c1,0,1.5,0.7,1.5,2.2c0,1-0.3,2.7-1,5.3c-0.6,2.5-1,4.4-1,5.6c0,2.2,0.9,3.6,2.7,4.4c0.6,0.3,1.3,0.4,1.9,0.4c0.7,0,1.2,0,1.6-0.1
		c1.8-0.3,3.4-1.5,4.7-3.5c0.1,0.8,0.4,1.5,0.9,2.2c0.7,0.9,1.7,1.4,3.3,1.4c0.4,0,0.8,0,1.1-0.1c1.4-0.3,2.5-1.7,3.4-4
		c-0.3,0.1-0.7,0.1-1.2,0.1s-0.9-0.1-1.1-0.4s-0.3-0.7-0.3-1.1s0.1-1,0.2-1.5l2.7-12.7h2.6l0.3-1.7H208.3z M169.7,21.8
		c1-1.8,2-2.7,3-2.7c0.7,0,1.1,0.5,1.1,1.5c0,1.9-0.6,3.5-1.9,4.9c-1.2,1.4-2.7,2.2-4.3,2.3C168,25.7,168.7,23.7,169.7,21.8z
		 M139.1,30.9c-0.3,1.2-0.7,2.1-1.4,2.7c-0.7,0.7-1.5,1-2.3,1c-0.5,0-0.8-0.2-1.1-0.5c-0.5-0.5-0.8-1.4-0.8-2.6c0-0.7,0-1.3,0.1-1.8
		c0.5-3.8,1.6-6.7,3.4-8.8c0.7-0.8,1.5-1.3,2.3-1.3c0.8,0,1.3,0.2,1.5,0.6c0.2,0.4,0.4,0.7,0.4,1L139.1,30.9z"/>
</g>
</svg>
