<?xml version="1.0" encoding="utf-8"?>
<!-- Generator: Adobe Illustrator 25.2.1, SVG Export Plug-In . SVG Version: 6.00 Build 0)  -->
<svg version="1.1" id="Layer_1" xmlns="http://www.w3.org/2000/svg" xmlns:xlink="http://www.w3.org/1999/xlink" x="0px" y="0px"
	 viewBox="0 0 66.7 71.2" style="enable-background:new 0 0 66.7 71.2;" xml:space="preserve">
<style type="text/css">
	.st0{fill:none;stroke:#FFFFFF;stroke-width:5;}
	.st1{fill:none;stroke:#FFFFFF;stroke-width:5.0006;stroke-miterlimit:4.0005;}
	.st2{fill:#FFFFFF;}
</style>
<g id="Group_21946" transform="translate(-1542.475 -231.447)">
	<path id="Rectangle_84" class="st0" d="M1548.8,264.6h57.9l0,0v33.6c0,1.1-0.9,2-2,2h-53.9c-1.1,0-2-0.9-2-2V264.6L1548.8,264.6z"
		/>
	<path id="Rectangle_84-2" class="st1" d="M1547.5,249l52.1-14c1.1-0.3,2.2,0.3,2.5,1.4l3.3,12.3l0,0l-55.9,15l0,0l-3.3-12.3
		C1545.8,250.4,1546.4,249.3,1547.5,249z"/>
	<g id="Polygon_10" transform="translate(1592.221 272.348) rotate(90)">
		<path class="st2" d="M16.2,19.8H3.9L10,6.1L16.2,19.8z"/>
		<path class="st2" d="M10,12.2l-2.3,5.1h4.6L10,12.2 M10,1.4c0.4,0,0.7,0.2,0.9,0.6l8.5,18.8c0.3,0.7-0.2,1.4-0.9,1.4H1.5
			c-0.7,0-1.2-0.7-0.9-1.4L9.1,2C9.3,1.6,9.7,1.4,10,1.4z"/>
	</g>
</g>
</svg>
