<?xml version="1.0" encoding="utf-8"?>
<!-- Generator: Adobe Illustrator 25.2.1, SVG Export Plug-In . SVG Version: 6.00 Build 0)  -->
<svg version="1.1" id="Layer_1" xmlns="http://www.w3.org/2000/svg" xmlns:xlink="http://www.w3.org/1999/xlink" x="0px" y="0px"
	 viewBox="0 0 67.8 64" style="enable-background:new 0 0 67.8 64;" xml:space="preserve">
<style type="text/css">
	.st0{fill:#FFFFFF;}
	.st1{fill-rule:evenodd;clip-rule:evenodd;fill:#141B26;}
	.st2{fill:#236FEB;}
	.st3{fill:none;stroke:#FFFFFF;stroke-width:3;}
</style>
<path class="st0" d="M67.8,50.8c0,7.3-5.9,13.2-13.2,13.2c-1.8,0-3.6-0.4-5.2-1c-0.3,0-0.5,0-0.8,0H34c0,0,0.1,0,0.1,0
	c-0.1,0-0.2,0-0.3,0H9.2c-3.8,0-6.8-3.1-6.8-6.8V26.8l-2.1-7.1c-1-3.6,1-7.4,4.7-8.5l37.9-11C43.4,0.1,44.1,0,44.7,0
	c3,0,5.7,2,6.6,4.9l2.1,7.3c0.2,0.6-0.2,1.3-0.9,1.5L12.2,25.4h42c0.7,0,1.2,0.6,1.2,1.2v11C62.3,38.1,67.8,43.8,67.8,50.8z"/>
<g id="Group_22697" transform="translate(-1107.219 -659.5)">
	<g id="video" transform="translate(1107.219 659.5)">
		<path id="Path_7" class="st1" d="M36.8,48.8L26,42.5c-0.6-0.3-1.3-0.1-1.7,0.4c-0.1,0.2-0.2,0.4-0.2,0.6v12.5
			c0,0.7,0.5,1.2,1.2,1.2c0.2,0,0.4-0.1,0.6-0.2l10.8-6.2c0.4-0.2,0.6-0.6,0.6-1.1S37.2,49,36.8,48.8z M26.6,54v-8.2l7.1,4.1
			L26.6,54z"/>
		<path class="st1" d="M54.2,25.4h-42l40.3-11.7c0.7-0.2,1-0.9,0.9-1.5l-2.1-7.3C50.4,2,47.8,0,44.7,0c-0.6,0-1.3,0.1-1.9,0.3
			l-37.9,11c-3.6,1.1-5.7,4.9-4.7,8.5l2.1,7.1v29.3c0,3.8,3.1,6.8,6.8,6.8h24.6c0.1,0,0.2,0,0.3,0c0,0-0.1,0-0.1,0h14.6
			c0.3,0,0.5,0,0.8,0c3.4-0.4,6-3.3,6.1-6.8V26.7C55.5,26,54.9,25.4,54.2,25.4z M53,27.9v9.1H42.2l5.2-9.1H53z M44.5,27.9l-5.2,9.1
			h-6.8l5.2-9.1H44.5z M34.9,27.9l-5.2,9.1h-6.8l5.2-9.1H34.9z M25.3,27.9L20,36.9h-6.8l5.2-9.1H25.3z M15.6,27.9l-5.2,9.1H4.8v-9.1
			H15.6z M43.5,2.6c0.4-0.1,0.8-0.2,1.2-0.2c2,0,3.7,1.3,4.2,3.2l1.8,6.1l-4.9,1.4c0-0.1-0.1-0.1-0.2-0.2l-8.8-8.4L43.5,2.6z
			 M34.1,5.3c0,0.1,0.1,0.1,0.2,0.2l8.8,8.4l-6.5,1.9c0-0.1-0.1-0.1-0.2-0.2l-8.8-8.4L34.1,5.3z M24.9,8c0,0.1,0.1,0.1,0.2,0.2
			l8.8,8.4l-6.6,1.9c0-0.1-0.1-0.1-0.2-0.2l-8.8-8.4L24.9,8z M15.6,10.7c0,0.1,0.1,0.1,0.2,0.2l8.8,8.4L18,21.2
			c0-0.1-0.1-0.1-0.2-0.2h0L9,12.6L15.6,10.7z M2.6,19c-0.3-1.1-0.2-2.3,0.4-3.3c0.6-1,1.5-1.8,2.6-2.1l0.7-0.2
			c0.1,0.1,0.1,0.1,0.2,0.2l8.8,8.4L4.4,25.1L2.6,19z M53,56.1c0,2.4-2,4.4-4.4,4.4H34c0,0,0.1,0,0.1,0c-0.1,0-0.2,0-0.3,0H9.2
			c-2.4,0-4.4-2-4.4-4.4V39.4H53V56.1z"/>
	</g>
	<g id="Group_22389" transform="translate(1148.574 697.084)">
		<path class="st2" d="M26.4,13.2c0,7.3-5.9,13.2-13.2,13.2c-1.8,0-3.6-0.4-5.2-1C6.7,24.8,5.4,24,4.3,23C1.7,20.5,0,17.1,0,13.2
			C0,8.4,2.6,4.1,6.5,1.8c2-1.2,4.3-1.8,6.7-1.8c0.3,0,0.6,0,0.9,0C21,0.5,26.4,6.2,26.4,13.2z"/>
		<path id="Path_3373" class="st3" d="M4.8,13.4l5.7,5.5l6.2-5.8l4.9-4.6"/>
	</g>
</g>
</svg>
