<svg xmlns="http://www.w3.org/2000/svg" width="54.232" height="54.232" viewBox="0 0 54.232 54.232">
  <g id="Group_22695" data-name="Group 22695" transform="translate(-264.901 -663.384)">
    <g id="shuttle_1_" data-name="shuttle (1)" transform="translate(264.901 663.384)">
      <path id="Path_13432" data-name="Path 13432" d="M54.168,4.049A4.215,4.215,0,0,0,50.183.064,41.863,41.863,0,0,0,29.2,4.264,41.2,41.2,0,0,0,17.166,14.24l-.128.155L9.1,15.009A4.193,4.193,0,0,0,5.9,16.889l-5.418,8.2a2.9,2.9,0,0,0,1.978,4.472l6.691,1.036c-.024.13-.047.26-.069.39a4.213,4.213,0,0,0,1.181,3.665l9.32,9.32a4.224,4.224,0,0,0,2.981,1.238,4.153,4.153,0,0,0,.684-.057c.13-.022.26-.045.39-.069l1.036,6.691a2.9,2.9,0,0,0,4.471,1.978l8.2-5.418a4.192,4.192,0,0,0,1.88-3.195l.613-7.942.156-.128a41.2,41.2,0,0,0,9.976-12.031,41.866,41.866,0,0,0,4.2-20.986ZM35.59,45.68l-7.839,5.183-1.01-6.521a35.593,35.593,0,0,0,9.713-4.625l-.4,5.174a1.035,1.035,0,0,1-.464.789ZM21.831,41.721l-9.32-9.32a1.03,1.03,0,0,1-.294-.894,27.333,27.333,0,0,1,1.241-4.72L27.443,40.771a27.447,27.447,0,0,1-4.717,1.244,1.03,1.03,0,0,1-.894-.294ZM9.341,18.178l5.174-.4A35.59,35.59,0,0,0,9.89,27.491l-6.521-1.01,5.183-7.84A1.035,1.035,0,0,1,9.341,18.178ZM37.956,34.626a36.428,36.428,0,0,1-7.355,4.81L14.8,23.63a37.059,37.059,0,0,1,4.811-7.354A37.918,37.918,0,0,1,30.657,7.087,38.648,38.648,0,0,1,50.01,3.237,1.042,1.042,0,0,1,51,4.222a38.645,38.645,0,0,1-3.85,19.353,37.918,37.918,0,0,1-9.189,11.051Z" transform="translate(0 0)"/>
      <path id="Path_13433" data-name="Path 13433" d="M283.667,102.2a7.938,7.938,0,1,0-5.617-2.323,7.921,7.921,0,0,0,5.617,2.323Zm-3.37-11.31a4.766,4.766,0,1,1-1.4,3.37A4.751,4.751,0,0,1,280.3,90.888Z" transform="translate(-246.518 -77.175)"/>
      <path id="Path_13434" data-name="Path 13434" d="M1.89,351.33a1.583,1.583,0,0,0,1.123-.465L8.2,345.677a1.589,1.589,0,1,0-2.247-2.247L.767,348.617A1.589,1.589,0,0,0,1.89,351.33Z" transform="translate(-0.27 -306.637)"/>
      <path id="Path_13435" data-name="Path 13435" d="M12.686,388.311a1.589,1.589,0,0,0-2.247,0L.466,398.284a1.589,1.589,0,1,0,2.247,2.247l9.973-9.973A1.589,1.589,0,0,0,12.686,388.311Z" transform="translate(-0.001 -346.764)"/>
      <path id="Path_13436" data-name="Path 13436" d="M95.715,433.192l-5.187,5.187a1.589,1.589,0,1,0,2.247,2.247l5.187-5.187a1.589,1.589,0,0,0-2.247-2.247Z" transform="translate(-80.523 -386.891)"/>
    </g>
    <circle id="Ellipse_846" data-name="Ellipse 846" cx="8.873" cy="8.873" r="8.873" transform="translate(293 671.419)" fill="#236feb"/>
    <circle id="Ellipse_847" data-name="Ellipse 847" cx="2" cy="2" r="2" transform="translate(302 676)" fill="#fff"/>
  </g>
</svg>
