<?xml version="1.0" encoding="utf-8"?>
<!-- Generator: Adobe Illustrator 25.2.1, SVG Export Plug-In . SVG Version: 6.00 Build 0)  -->
<svg version="1.1" id="Layer_1" xmlns="http://www.w3.org/2000/svg" xmlns:xlink="http://www.w3.org/1999/xlink" x="0px" y="0px"
	 viewBox="0 0 54.2 54.2" style="enable-background:new 0 0 54.2 54.2;" xml:space="preserve">
<style type="text/css">
	.st0{fill:#236FEB;}
	.st1{fill:#FFFFFF;}
</style>
<path class="st0" d="M0.5,44.2c-0.6-0.6-0.6-1.6,0-2.2l5.2-5.2l0,0c0.6-0.6,1.6-0.6,2.2,0c0.6,0.6,0.6,1.6,0,2.2l-5.2,5.2
	c-0.3,0.3-0.7,0.5-1.1,0.5S0.8,44.5,0.5,44.2z"/>
<path class="st0" d="M12.7,43.8l-10,10c0,0,0,0,0,0c-0.6,0.6-1.6,0.6-2.2,0c-0.6-0.6-0.6-1.6,0-2.2l10-10c0.6-0.6,1.6-0.6,2.2,0
	C13.3,42.2,13.3,43.2,12.7,43.8z"/>
<path class="st0" d="M17.4,46.3c0.6,0.6,0.6,1.6,0,2.2l-5.2,5.2c0,0,0,0,0,0c-0.6,0.6-1.6,0.6-2.2,0c-0.6-0.6-0.6-1.6,0-2.2l5.2-5.2
	C15.8,45.7,16.8,45.7,17.4,46.3z"/>
<path class="st1" d="M50,25c-2.5,4.6-5.9,8.7-10,12l-0.1,0.1l-0.6,7.9c-0.1,1.3-0.8,2.5-1.9,3.2l-8.2,5.4c-0.4,0.2-0.7,0.4-1.2,0.5
	c-1.6,0.2-3.1-0.8-3.3-2.4l-1-6.7c-0.1,0-0.3,0-0.4,0.1c-0.2,0-0.5,0.1-0.7,0.1c-1.1,0-2.2-0.5-3-1.2l-9.3-9.3c-1-1-1.4-2.3-1.2-3.7
	c0-0.1,0-0.3,0.1-0.4l-6.7-1c-0.4-0.1-0.8-0.2-1.2-0.5c-1.3-0.9-1.7-2.7-0.8-4l5.4-8.2c0.7-1.1,1.9-1.8,3.2-1.9l7.9-0.6l0.1-0.2
	c3.3-4.1,7.4-7.4,12-10c6.5-3.2,13.7-4.6,21-4.2c2.2,0.1,3.9,1.8,4,4C54.6,11.3,53.2,18.5,50,25z"/>
<g id="Group_22695" transform="translate(-264.901 -663.384)">
	<g id="shuttle_1_" transform="translate(264.901 663.384)">
		<path id="Path_13432" d="M54.2,4c-0.1-2.1-1.8-3.9-4-4c-7.2-0.4-14.5,1-21,4.2c-4.6,2.5-8.7,5.9-12,10L17,14.4L9.1,15
			c-1.3,0.1-2.5,0.8-3.2,1.9l-5.4,8.2c-0.9,1.3-0.5,3.1,0.8,4c0.4,0.2,0.8,0.4,1.2,0.5l6.7,1c0,0.1-0.1,0.3-0.1,0.4
			c-0.2,1.3,0.2,2.7,1.2,3.7l9.3,9.3c0.8,0.8,1.9,1.2,3,1.2c0.2,0,0.5,0,0.7-0.1c0.1,0,0.3,0,0.4-0.1l1,6.7c0.2,1.6,1.7,2.7,3.3,2.4
			c0.4-0.1,0.8-0.2,1.2-0.5l8.2-5.4c1.1-0.7,1.8-1.9,1.9-3.2l0.6-7.9l0.1-0.1c4.1-3.3,7.5-7.4,10-12C53.2,18.5,54.6,11.3,54.2,4z
			 M9.9,27.5l-6.5-1l5.2-7.8c0.2-0.3,0.5-0.4,0.8-0.5l5.2-0.4C12.5,20.8,10.9,24,9.9,27.5z M22.7,42c-0.3,0-0.7-0.1-0.9-0.3
			l-9.3-9.3c-0.2-0.2-0.3-0.6-0.3-0.9c0.3-1.6,0.7-3.2,1.2-4.7l14,14C25.9,41.3,24.3,41.7,22.7,42z M36,44.9c0,0.3-0.2,0.6-0.5,0.8
			l-7.8,5.2l-1-6.5c3.5-1,6.7-2.6,9.7-4.6L36,44.9z M47.2,23.6c-2.3,4.2-5.5,8-9.2,11c-2.2,1.9-4.7,3.5-7.4,4.8L14.8,23.6
			c1.3-2.6,2.9-5.1,4.8-7.3c3.1-3.7,6.8-6.9,11-9.2c6-2.9,12.7-4.3,19.4-3.9c0.5,0,1,0.5,1,1C51.4,10.9,50.1,17.6,47.2,23.6z"/>
		<path id="Path_13433" d="M37.1,9.1c-4.4,0-7.9,3.6-7.9,7.9c0,2.1,0.8,4.1,2.3,5.6C33,24.2,35,25,37.2,25c4.4,0,7.9-3.6,7.9-8
			C45.1,12.7,41.5,9.1,37.1,9.1z M40.5,20.5c-1.9,1.9-4.9,1.9-6.7,0c-0.9-0.9-1.4-2.1-1.4-3.4c0-1.3,0.5-2.5,1.4-3.4
			c1.4-1.4,3.4-1.7,5-1.1c0.6,0.2,1.2,0.6,1.7,1.1c0.2,0.2,0.4,0.4,0.6,0.7c0,0,0,0,0,0C42.3,16.3,42.2,18.8,40.5,20.5z"/>
		<path d="M7.9,39l-5.2,5.2c-0.3,0.3-0.7,0.5-1.1,0.5s-0.8-0.2-1.1-0.5c-0.6-0.6-0.6-1.6,0-2.2l5.2-5.2l0,0c0.6-0.6,1.6-0.6,2.2,0
			C8.6,37.4,8.6,38.4,7.9,39z"/>
		<path d="M12.7,43.8l-10,10c0,0,0,0,0,0c-0.6,0.6-1.6,0.6-2.2,0c-0.6-0.6-0.6-1.6,0-2.2l10-10c0.6-0.6,1.6-0.6,2.2,0
			C13.3,42.2,13.3,43.2,12.7,43.8z"/>
		<path d="M17.4,48.5l-5.2,5.2c0,0,0,0,0,0c-0.6,0.6-1.6,0.6-2.2,0c-0.6-0.6-0.6-1.6,0-2.2l5.2-5.2c0.6-0.6,1.6-0.6,2.2,0
			C18,46.9,18,47.9,17.4,48.5z"/>
	</g>
	<circle id="Ellipse_846" class="st0" cx="301.9" cy="680.3" r="8.9"/>
	<circle id="Ellipse_847" class="st1" cx="304" cy="678" r="2"/>
</g>
</svg>
