<?xml version="1.0" encoding="utf-8"?>
<!-- Generator: Adobe Illustrator 25.2.1, SVG Export Plug-In . SVG Version: 6.00 Build 0)  -->
<svg version="1.1" id="Layer_1" xmlns="http://www.w3.org/2000/svg" xmlns:xlink="http://www.w3.org/1999/xlink" x="0px" y="0px"
	 viewBox="0 0 217 51.4" style="enable-background:new 0 0 217 51.4;" xml:space="preserve">
<g>
	<g>
		<g>
			<path d="M10.3,20c-1.8-4.4,7-6.9,9.9-8.3c-1.8-1-3.5-2-5.3-3c-0.2,5.8-2.7,11.1-2.2,17c0.4,4.5-0.2,10.2,2.2,14.2
				c1.3,2.1,4.9,2.4,6,0C25.8,30.1,30.2,20,34.5,10c1.8-4.1-4.3-7.7-6-3.5C24.1,16.5,19.8,26.6,15,36.4c2,0,4,0,6,0
				C20,34.6,20.5,32,20.4,30c-0.2-2.7-0.9-5.3-0.7-8.1c0.4-4.5,2.1-8.7,2.2-13.3c0.1-2.9-3-4.1-5.3-3c-6.5,3-16.8,7.2-13.1,16.2
				C5.3,26,12,24.2,10.3,20L10.3,20z"/>
		</g>
	</g>
	<g>
		<g>
			<path d="M31.6,25.6c1.1-0.6,2.2-1.2,3.3-1.8c2.2-0.6,2.2-1.2,0.1-1.8c-0.1-0.9-0.2-1.8-0.4-2.7c-1.7,6.3-8.1,18.3,2.5,20.7
				c9.6,2.1,11.6-14.6,15.1-20.1c-2.1-0.9-4.3-1.8-6.4-2.7c-1.4,6.7-2.9,13.4-4.4,20c-1,4.4,5.6,6.2,6.7,1.9
				c0.7-2.6,2.2-4.9,2.9-7.5c0.3-1.2,0.4-2.4,0.8-3.5c0-0.1,2.8-5.7,3.5-4.7c2.4,3.8,8.5,0.3,6-3.5c-3.1-4.8-8.8-3.7-12.8-0.4
				c-2.2,1.8-2.8,4.1-3.5,6.8c-1,3.9-2.7,7.3-3.7,11.1c2.2,0.6,4.5,1.2,6.7,1.9c1.5-6.7,3-13.3,4.4-20c0.8-3.8-4.2-6.2-6.4-2.7
				c-2.4,3.9-3.7,8.1-5.4,12.3c-1,2.5-3.2,6.4-2.5,1.6c0.4-2.6,1.7-4.9,2.6-7.4c0.9-2.8,0.6-5.6-2.5-6.8c-3.5-1.4-7.4,1.8-10.3,3.4
				C24.1,21.7,27.6,27.7,31.6,25.6L31.6,25.6z"/>
		</g>
	</g>
	<g>
		<g>
			<path d="M33.3,12.8c0.6,1.3,2,2.1,3.4,2.3c1.3,0.2,2.3-0.1,3.4-0.8c-0.3,0.1-0.6,0.2-0.8,0.4c0,0,0.1,0,0.1,0c-0.6,0-1.2,0-1.9,0
				c0,0,0.1,0,0.1,0c-0.5-0.3-1-0.6-1.5-0.9c0,0,0.1,0.1,0.1,0.1c-0.2-0.2-0.4-0.5-0.5-0.7c0,0,0,0.1,0.1,0.1
				c-0.1-0.3-0.2-0.6-0.4-0.8c0,0.1,0.1,0.2,0.1,0.3c0-0.3-0.1-0.6-0.1-0.9c0,0.1,0,0.2,0,0.2c0-0.3,0.1-0.6,0.1-0.9
				c0,0.1,0,0.1-0.1,0.2c0.1-0.3,0.2-0.6,0.4-0.8c0,0,0,0.1-0.1,0.1c0.2-0.2,0.4-0.5,0.5-0.7c0,0,0,0.1-0.1,0.1
				c0.2-0.2,0.5-0.4,0.7-0.5c0,0-0.1,0-0.1,0.1c0.3-0.1,0.6-0.2,0.8-0.4c0,0-0.1,0-0.1,0c0.3,0,0.6-0.1,0.9-0.1c0,0-0.1,0-0.1,0
				c0.3,0,0.6,0.1,0.9,0.1c0,0-0.1,0-0.1,0c0.3,0.1,0.6,0.2,0.8,0.4c-0.1,0-0.1-0.1-0.2-0.1c0.2,0.2,0.5,0.4,0.7,0.5
				c-0.4-0.4-0.8-0.8-1.4-1.1c-0.8-0.4-1.8-0.6-2.7-0.4c-0.8,0.2-1.7,0.9-2.1,1.6c-0.8,1.6-0.5,3.9,1.3,4.8c0.1,0,0.1,0.1,0.2,0.1
				c-0.2-0.2-0.5-0.4-0.7-0.5c0.4,0.3,0.7,0.7,1.2,1c0.7,0.4,1.3,0.6,2.1,0.6c1.8,0,3.4-1.3,3.8-3.1c0.3-1.5,0-3.1-1.1-4.2
				c-0.9-0.9-2.4-1.3-3.6-0.9C37,8,36.6,8.3,36.2,8.5c0.3-0.1,0.6-0.2,0.8-0.4c-0.1,0-0.2,0.1-0.3,0.1c0.3,0,0.6-0.1,0.9-0.1
				c-0.1,0-0.2,0-0.4,0c0.3,0,0.6,0.1,0.9,0.1c-0.1,0-0.2-0.1-0.3-0.1c0.3,0.1,0.6,0.2,0.8,0.4c-0.1-0.1-0.2-0.1-0.3-0.2
				c0.2,0.2,0.5,0.4,0.7,0.5C39,8.8,39,8.8,39,8.7c0.2,0.2,0.4,0.5,0.5,0.7c0-0.1-0.1-0.1-0.1-0.2c-0.4-0.8-1.3-1.4-2.1-1.6
				c-0.8-0.2-2-0.1-2.7,0.4C32.9,9.1,32.5,11,33.3,12.8L33.3,12.8z"/>
		</g>
	</g>
	<g>
		<g>
			<path d="M73.4,17.6c-9.9-5.9-19.7,9.3-15.9,18c2,4.5,7.3,5.6,11.1,2.6c2-1.6,3.1-4.1,4.1-6.4c0.6-1.5,2.5-9.2,3.4-9.5
				c-1.5-1.1-3-2.2-4.4-3.4c-0.3,4.5-2.4,9.2-3.8,13.4c-0.6,1.9-1.3,3.7-1.7,5.7c-0.1,0.9-0.8,7.3-1.4,6.8
				c-0.3-0.3,10.9-4.1,11.3-4.3c2.3-0.8,4.3-1.9,5.7-4c1.8-2.8,1.1-5.7,1-8.7c-0.1-2.7,0.7-5.1,3.2-6.4c2.1-1.1,5-1.5,5.4,1.9
				c0.1,1.3-1.3,3.9-1.9,5c-0.6,1.4-1.6,2.6-2.8,3.5c-0.6,1.9-0.9,1.6-0.9-0.8c0-1.4,4.6-10.7,5.3-10c-0.3-0.8-0.7-1.6-1-2.5
				c-0.2,1.3-0.9,2.9-1.3,4.2c-1,3.2,2.6,5.1,5.1,4c2.9-1.4,5.4-3.2,7.7-5.5c3.1-3.2-1.8-8.2-4.9-4.9c-1.9,1.9-3.8,3.3-6.2,4.4
				c1.7,1.3,3.4,2.6,5.1,4c0.8-2.4,2.3-5.4,1.1-7.8c-1.2-2.5-4.3-3-6.8-2.6c-5.3,0.8-8.9,7.7-10.4,12.3c-1.4,4.2-1.2,12.6,4.5,13.1
				c6.8,0.6,11.1-6.1,13.1-11.5c2.1-5.6,1.9-11.9-4.8-13.9c-5.7-1.7-12.1,1.1-15,6.3c-1.7,3.1-1.3,5.8-1.5,9.1
				c-0.3,5.4-5.6,5.3-9.9,6.8c-4.5,1.6-11.6,6.3-8.4,12c3.3,5.9,12.3,3,14.5-2.4c0.8-1.8,0.6-3.7,0.7-5.6c0.2-2.5,1.1-4.7,1.9-7.1
				c1.5-4.6,3.4-9.5,3.7-14.4c0.1-2.3-2.4-3.9-4.4-3.4c-4.3,1.2-5.8,7-7,10.7c-0.5,1.4-3.2,9.3-3.6,4.1c-0.2-2.1,3.6-8.4,6.3-6.7
				C73.7,26,77.2,20,73.4,17.6L73.4,17.6z"/>
		</g>
	</g>
	<g>
		<g>
			<path d="M115.9,24c-1.4-3.6-3.1-7.2,0.9-9.8c2.9-1.9,7.4-3.1,10.8-2.5c5.6,1,9.3,2.2,14.7-0.7c4-2.1,0.4-8.2-3.5-6
				c-4.6,2.5-8.9-0.7-13.7-0.5c-3.8,0.1-7.9,1.6-11.2,3.4c-7.5,3.8-7.5,11-4.7,18C110.8,30,117.5,28.2,115.9,24L115.9,24z"/>
		</g>
	</g>
	<g>
		<g>
			<path d="M120.6,11.4c0.7,3.6-1,9.1-1.7,12.7c-0.8,4.3-1.9,8.5-4,12.4c-2.1,4,3.9,7.5,6,3.5c2.6-5,4.1-10.3,5-15.8
				c0.8-4.7,2.3-10,1.4-14.7C126.5,5.1,119.7,7,120.6,11.4L120.6,11.4z"/>
		</g>
	</g>
	<g>
		<g>
			<path d="M145.7,18c-7.1-2.9-14.3,1.2-17.9,7.5c-3.4,6-0.1,11.6,6.2,14.2c7,2.9,8.5-4.6,11.5-8.9c3.2-4.5,9.8-12,1.5-15.2
				c-2.5-1-5,1.9-4.3,4.3c0.7,2.4,1.8,5.2,1.5,7.8c-0.2,2.4-2.1,4.1-2.1,6.4c-0.1,3.9,4,5.9,7.3,5.1c4.5-1,5.9-5.4,6.9-9.2
				c1.7-6.3,3.9-12.5,6.6-18.5c-2.1-0.9-4.3-1.8-6.4-2.7c-1.4,5.2-2.8,10.4-4.1,15.6c-0.9,3.5-3.3,8.5-1.5,12.2
				c1.2,2.5,4,3.7,6.7,3.3c4-0.6,5.4-3.9,8-6.5c-0.8,0.3-1.6,0.7-2.5,1c4.5-0.5,8.8-0.3,12.5-3.4c2.8-2.4,4.6-6.2,3.8-9.9
				c-2-9.4-13.1-4.1-16,1.6c-3.7,7.1,0.8,16,8.9,16.6c10.4,0.8,13.5-10.4,16.8-18c-2.1-0.9-4.3-1.8-6.4-2.7
				c-1.2,3.1-2.1,6.2-2.6,9.5c-0.4,2.5,0,6.1-1.3,8.3c-2.3,3.9,3.7,7.4,6,3.5c1.4-2.4,1.5-4.6,1.7-7.4c0.4-4.3,1.4-8.2,2.9-12.2
				c1.4-3.7-4.8-6.3-6.4-2.7c-1.7,4.1-4.1,13.8-9.2,14.5c-5.4,0.7-6-6.2-2.2-8.7c2.3-1.5,0.1,1.5-0.5,2c-1.9,1.7-4.2,1.4-6.4,1.6
				c-2.3,0.2-3.7,0.5-5.3,2.3c-0.7,0.8-1.2,1.7-1.8,2.5c-1.1,1.5-0.1-0.2,0.3-1.1c2.4-6.4,3.6-13.5,5.3-20.1c1-3.7-4.7-6.4-6.4-2.7
				c-1.7,3.8-3.3,7.7-4.6,11.6c-1.2,3.6-4.3,9.7-3.2,13.6c-0.1,0.9-0.2,1.8-0.4,2.7c3.2-6.2,2.8-11.3,0.8-17.9
				c-1.4,1.4-2.9,2.9-4.3,4.3c-0.2,0-0.3,0-0.5,0c-0.1-0.9-0.2-1.8-0.4-2.7c-0.4,2.5-2.5,4.5-4,6.4c-0.9,1.2-1.8,2.4-2.6,3.7
				c-0.4,0.7-0.8,2.4-1.3,2.8c-0.7,0.5-0.9,0.4-2.1-1.1c-1.1-1.5-1.3-1.2-0.1-3c2.3-3.4,5.5-5.3,9.5-3.7
				C148,26.5,149.8,19.7,145.7,18L145.7,18z"/>
		</g>
	</g>
	<g>
		<g>
			<path d="M190.2,24.5c1.2,0.2,1.5,0.7,0.8,1.4c-0.2,0.3-0.4,0.7-0.5,1c-0.2,1.1-0.8,2-0.9,3.1c-0.2,1.9,0.1,3.8,1,5.5
				c2,3.7,6.7,5.7,10.7,4.3c4-1.4,5.1-6.4,5.8-10c1.3-6,2.7-11.8,5-17.6c1.6-4.2-5.1-6-6.7-1.9c-2.1,5.5-3.7,11.1-4.8,16.8
				c-0.2,0.9-0.2,2.2-0.7,3c0,1.7-0.6,2-1.9,0.9c-1.5-0.1-1.8-0.5-1.1-1.5c0-2,1.8-3.6,1.7-5.8c-0.3-8.2-11-9.7-14.6-2.9
				C182,24.9,188,28.4,190.2,24.5L190.2,24.5z"/>
		</g>
	</g>
	<g>
		<g>
			<path d="M200.5,29.6c-1.6,1.9-1.3,3.7-0.3,5.8c0.7,1.5,1.8,2.9,3.2,3.8c1.6,0.9,3.6,1.2,5.3,0.4c1.6-0.7,2.7-2,3.5-3.6
				c0.9-1.7,0.4-3.8-1.3-4.8c-1.6-0.9-3.9-0.4-4.8,1.3c-0.1,0.2-0.2,0.4-0.4,0.6c-0.2,0.4-0.2,0.2-0.1,0.2c0.2,0,0.7-0.3,0.9-0.3
				c0.1,0,0.7,0.1,0.3,0.1c-0.2,0-0.1-0.1,0,0.1c0,0.1-0.2-0.3-0.3-0.5c-0.1-0.2-0.2-0.5-0.4-0.7c-0.2-0.2,0-0.2,0,0.3
				c-0.3,0.8-0.7,1.6-1,2.5c0.1-0.1,0.1-0.1,0.2-0.2c1.2-1.5,1.4-3.5,0-4.9C204.2,28.3,201.7,28.1,200.5,29.6L200.5,29.6z"/>
		</g>
	</g>
	<g>
		<g>
			<path d="M200.7,22.2c1.8,0.1,3.5,0,5.3-0.3c1.2-0.2,2.8-1.2,4-0.9c4.4,1,6.2-5.7,1.9-6.7c-3.8-0.9-7.3,1.2-11.2,0.9
				C196.2,14.9,196.2,21.9,200.7,22.2L200.7,22.2z"/>
		</g>
	</g>
	<g>
		<g>
			<path d="M162.7,28.6c-1.6,3-3.3,8.1-0.2,10.7c2.9,2.4,8,1.9,11.4,1c4.4-1.1,2.5-7.9-1.9-6.7c-1.5,0.4-4.2,0.9-5.6-0.1
				c0.4,0.4,0.8,0.8,1.3,1.3c0.1,0.6,0.2,0.5,0.2-0.2c0.1-0.2,0.1-0.5,0.2-0.7c0.2-0.6,0.4-1.2,0.7-1.7
				C171,28.2,164.9,24.6,162.7,28.6L162.7,28.6z"/>
		</g>
	</g>
	<g>
		<g>
			<path d="M131.1,24.8c-0.6,2.4-2,4.2-1.7,6.8c0.3,2.5,1.8,4.5,3.4,6.4c2.9,3.4,7.9-1.6,4.9-4.9c-0.6-0.8-1.6-1.6-1.4-2.7
				c0.2-1.2,1.1-2.5,1.5-3.7C139,22.3,132.3,20.5,131.1,24.8L131.1,24.8z"/>
		</g>
	</g>
	<g>
		<g>
			<path d="M139.2,33.3c0.1,2.7,0.8,5.2,3.4,6.4c2.5,1.2,5.9,0.6,8.4-0.3c1.8-0.7,3-2.4,2.4-4.3c-0.5-1.7-2.5-3.1-4.3-2.4
				c-1.1,0.4-2.1,0.6-3.2,0.7c-0.6-0.1-0.7-0.1-0.4,0.1c0.3,0.1,0.5,0.3,0.7,0.5c0.1,0,0.1,0.1,0.1,0.2c0-0.3,0-0.5,0-0.8
				C146,28.8,139,28.8,139.2,33.3L139.2,33.3z"/>
		</g>
	</g>
	<g>
		<g>
			<path d="M180.9,18c0.1,3.3,0.6,6.9,0.1,10.3c-0.5,3.3-2.3,6.3-2.7,9.6c-0.6,4.4,6.1,6.3,6.7,1.9c0.5-3.7,2.4-6.9,2.9-10.5
				c0.5-3.7,0.1-7.5,0-11.2C187.7,13.5,180.7,13.5,180.9,18L180.9,18z"/>
		</g>
	</g>
	<g>
		<g>
			<path d="M188.6,27.9c0.1,2-0.1,3.7-0.5,5.7c-0.5,2.3,0.1,4.4,1.8,5.9c2.8,2.5,7.6,3.5,10.8,1.2c1.5-1.1,2.3-3.1,1.3-4.8
				c-0.9-1.5-3.2-2.4-4.8-1.3c-0.5,0.4-0.5,0.4-1.3,0.2c-0.2,0-0.9-0.4-1-0.4c-0.1,0-0.1,0-0.2-0.1c0.1,0.8,0.3,1,0.4,0.4
				c0.5-0.6,0.5-2.6,0.6-3.3c0.1-1.2,0.1-2.3,0-3.5C195.5,23.4,188.5,23.3,188.6,27.9L188.6,27.9z"/>
		</g>
	</g>
	<g>
		<g>
			<path d="M13.8,13.1c0.2,3,1.6,5.2,2.3,8.1c0.7,2.8,0.1,5.4,1.5,8c2.1,4,8.1,0.5,6-3.5c-0.9-1.7-0.2-4.4-0.8-6.4
				c-0.6-2.1-1.9-4-2-6.2C20.5,8.6,13.5,8.6,13.8,13.1L13.8,13.1z"/>
		</g>
	</g>
</g>
</svg>
