<svg xmlns="http://www.w3.org/2000/svg" width="961.053" height="109.658" viewBox="0 0 961.053 109.658">
  <g id="Group_22442" data-name="Group 22442" transform="translate(-613.786 -173.443)">
    <path id="Polygon_19" data-name="Polygon 19" d="M13.019,0,26.038,22.4H0Z" transform="translate(1540.585 258.699) rotate(-45)" fill="#95e8f5"/>
    <path id="Polygon_24" data-name="Polygon 24" d="M10.174,0,20.347,17.508H0Z" transform="translate(830.814 246.096) rotate(21)" fill="#95e8f5"/>
    <path id="Polygon_20" data-name="Polygon 20" d="M9.083,0l9.083,16.349H0Z" transform="matrix(0.966, 0.259, -0.259, 0.966, 1445.131, 247.168)" fill="#95e8f5"/>
    <path id="Polygon_21" data-name="Polygon 21" d="M11.808,0,23.616,20.588H0Z" transform="translate(1415.675 173.443) rotate(45)" fill="#1aa9bf"/>
    <path id="Polygon_23" data-name="Polygon 23" d="M11.808,0,23.616,20.588H0Z" transform="translate(634.174 240.288) rotate(82)" fill="#1aa9bf"/>
    <circle id="Ellipse_843" data-name="Ellipse 843" cx="8.026" cy="8.026" r="8.026" transform="translate(1498.33 199.287)" fill="#fff"/>
    <circle id="Ellipse_853" data-name="Ellipse 853" cx="8.026" cy="8.026" r="8.026" transform="translate(805.774 196.674)" fill="#fff"/>
    <ellipse id="Ellipse_844" data-name="Ellipse 844" cx="15.441" cy="15.441" rx="15.441" ry="15.441" transform="translate(1361.339 220.907)" fill="#c8f1f9"/>
    <ellipse id="Ellipse_852" data-name="Ellipse 852" cx="15.441" cy="15.441" rx="15.441" ry="15.441" transform="translate(724.585 252.22)" fill="#c8f1f9"/>
    <ellipse id="Ellipse_854" data-name="Ellipse 854" cx="7.72" cy="7.72" rx="7.72" ry="7.72" transform="translate(708.937 189.259)" fill="#95e8f5"/>
  </g>
</svg>
