<svg xmlns="http://www.w3.org/2000/svg" width="31.808" height="39.566" viewBox="0 0 31.808 39.566">
  <g id="Group_22735" data-name="Group 22735" transform="translate(-1176.042 -590.432)">
    <g id="Group_5" data-name="Group 5" transform="translate(1176.042 590.432)">
      <g id="Ellipse_3" data-name="Ellipse 3" transform="translate(6.206 0)" fill="#fff" stroke="#121f36" stroke-width="3">
        <circle cx="9.698" cy="9.698" r="9.698" stroke="none"/>
        <circle cx="9.698" cy="9.698" r="8.198" fill="none"/>
      </g>
      <g id="Subtraction_1" data-name="Subtraction 1" transform="translate(0 19.22)" fill="#fff">
        <path d="M 30.30780029296875 18.8463077545166 L 1.50000011920929 18.8463077545166 L 1.50000011920929 15.30360698699951 C 1.50000011920929 12.10417747497559 2.526300191879272 9.075286865234375 4.467960357666016 6.544387340545654 C 6.179451465606689 4.313504219055176 8.538723945617676 2.612785816192627 11.17598152160645 1.693605780601501 L 14.88041973114014 5.151087284088135 L 15.90390014648438 6.106337547302246 L 16.9273796081543 5.151087284088135 L 20.63182067871094 1.693603992462158 C 23.26907920837402 2.612776756286621 25.62834739685059 4.31349515914917 27.33983039855957 6.544387340545654 C 29.2814998626709 9.075286865234375 30.30780029296875 12.10417747497559 30.30780029296875 15.30360698699951 L 30.30780029296875 18.8463077545166 Z" stroke="none"/>
        <path d="M 28.80780029296875 17.3463077545166 L 28.80780029296875 15.30360698699951 C 28.80780029296875 12.43723773956299 27.88865089416504 9.724067687988281 26.14971923828125 7.457417488098145 C 24.79727554321289 5.694533348083496 22.99433708190918 4.30129861831665 20.9676513671875 3.431990146636963 L 17.95086097717285 6.24766731262207 L 15.90390014648438 8.158166885375977 L 13.85694026947021 6.24766731262207 L 10.84015274047852 3.431994438171387 C 8.81346321105957 4.301305770874023 7.010525226593018 5.694535255432129 5.658080101013184 7.457427501678467 C 3.919150114059448 9.724067687988281 3.000000238418579 12.43723773956299 3.000000238418579 15.30360698699951 L 3.000000238418579 17.3463077545166 L 28.80780029296875 17.3463077545166 M 31.80780029296875 20.3463077545166 L 31.80680084228516 20.3463077545166 L 1.464843677467798e-07 20.3463077545166 L 1.464843677467798e-07 15.30360698699951 C 1.464843677467798e-07 11.77111721038818 1.133460164070129 8.426506996154785 3.277850151062012 5.631357192993164 C 5.354400157928467 2.924617290496826 8.295710563659668 0.9247472882270813 11.55994987487793 0.0001473101874580607 L 15.90390014648438 4.054507255554199 L 20.24785041809082 0.0001473101874580607 C 23.51259994506836 0.9248872995376587 26.45356941223145 2.924837350845337 28.52995109558105 5.631357192993164 C 30.67433929443359 8.426506996154785 31.80780029296875 11.77111721038818 31.80780029296875 15.30360698699951 L 31.80780029296875 20.34530639648438 L 31.80780029296875 20.3463077545166 Z" stroke="none" fill="#121f36"/>
      </g>
      <line id="Line_8" data-name="Line 8" y2="9.31" transform="translate(8.922 29.093)" fill="none" stroke="#121f36" stroke-width="3"/>
      <line id="Line_9" data-name="Line 9" y2="9.31" transform="translate(22.886 29.093)" fill="none" stroke="#121f36" stroke-width="3"/>
    </g>
  </g>
</svg>
