<?xml version="1.0" encoding="utf-8"?>
<!-- Generator: Adobe Illustrator 25.2.1, SVG Export Plug-In . SVG Version: 6.00 Build 0)  -->
<svg version="1.1" id="Layer_1" xmlns="http://www.w3.org/2000/svg" xmlns:xlink="http://www.w3.org/1999/xlink" x="0px" y="0px"
	 viewBox="0 0 28.1 26.5" style="enable-background:new 0 0 28.1 26.5;" xml:space="preserve">
<style type="text/css">
	.st0{fill:#236FEB;}
</style>
<g>
	<path class="st0" d="M21.5,0.2l-7.4,21.5L13.8,0.1C13.3,0,12.8,0,12.4,0C9.4,0,6.6,0.9,4,2.8C2.8,3.7,1.8,4.6,1.1,5.7
		C0.4,6.8,0,8,0,9.1c0,0.6,0.1,1.2,0.2,1.6c0.5,1.2,1.6,1.8,3.5,1.8c0-0.1,0-0.1-0.1-0.2c-0.3-0.5-0.4-1.2-0.4-2.1
		c0-2,0.5-3.6,1.4-4.9C5.6,3.9,6.9,3,8.5,2.4l0.6,24h5.1l9.8-26.2H21.5z"/>
	<path class="st0" d="M27.3,21.8c-0.5-0.5-1.2-0.8-2-0.8c-0.8,0-1.4,0.3-2,0.8c-0.5,0.6-0.8,1.2-0.8,2s0.3,1.4,0.8,2
		c0.6,0.5,1.2,0.8,2,0.8c0.8,0,1.4-0.3,2-0.8c0.6-0.5,0.8-1.2,0.8-2S27.9,22.3,27.3,21.8z"/>
</g>
</svg>
